<?xml version="1.0" standalone="no"?>
<!DOCTYPE svg PUBLIC "-//W3C//DTD SVG 1.1//EN" "http://www.w3.org/Graphics/SVG/1.1/DTD/svg11.dtd" >
<!--
2018-9-18: Created.
-->
<svg xmlns="http://www.w3.org/2000/svg">
<metadata>
Created by FontForge 20120731 at Tue Sep 18 11:23:44 2018
 By Travis CI User

</metadata>
<defs>
<font id="EBI-Generic" horiz-adv-x="512" >
  <font-face 
    font-family="EBI-Generic"
    font-weight="500"
    font-stretch="normal"
    units-per-em="512"
    panose-1="2 0 6 9 0 0 0 0 0 0"
    ascent="448"
    descent="-64"
    x-height="291.36"
    cap-height="396.483"
    bbox="-5.23242 -69.6484 516.08 455.728"
    underline-thickness="25.6"
    underline-position="-51.2"
    unicode-range="U+0021-007D"
  />
    <missing-glyph />
    <glyph glyph-name="accommodation" unicode="a" 
d="M8 3.8877v31.0088h496v-31.0088h-62v-62h-62v62h-248v-62h-62v62h-62zM411.008 282.88l92.9922 -216.992h-496l92.9922 216.992h310.016zM178.496 313.888c-42.7842 0 -77.5039 -13.8721 -77.5039 -31.0078v124c0 17.1357 13.8721 31.0078 31.0078 31.0078h248
c17.1523 0 31.0078 -13.8721 31.0078 -31.0078v-124c0 17.1357 -34.7041 31.0078 -77.5039 31.0078s-77.5039 -13.8721 -77.5039 -31.0078c0 17.1357 -34.7041 31.0078 -77.5039 31.0078z" />
    <glyph glyph-name="alert" unicode="l" 
d="M495.952 32.4004c18.8643 -32.6729 3.42386 -59.3926 -34.2881 -59.3926h-411.328c-37.7275 0 -53.1523 26.7197 -34.3037 59.3926l205.712 356.224c18.8477 32.6562 49.6963 32.6562 68.5439 0zM294.752 314h-77.5039l7.75977 -185.984h62zM256 4.01562
c25.666 0 46.4961 20.8301 46.4961 46.4961s-20.8301 46.4961 -46.4961 46.4961s-46.4961 -20.8301 -46.4961 -46.4961s20.8301 -46.4961 46.4961 -46.4961z" />
    <glyph glyph-name="alumni" unicode="A" 
d="M93.3281 158.224l160 -80.0156l159.984 80.0156v-74.3359c0 -32 -71.6328 -80 -159.984 -80c-88.3682 0 -160 48 -160 80v74.3359zM253.328 387.888l255.984 -128l-31.9843 -16v-144h-32l15.6963 135.856l-207.696 -103.856l-256 128zM269.312 252.688h0.0078125
c12.8057 0 23.1992 10.3936 23.1992 23.1992c0 12.8027 -10.3896 23.1963 -23.1914 23.2002h-0.0078125c-12.8066 0 -23.2002 -10.3936 -23.2002 -23.2002c0 -12.8018 10.3896 -23.1953 23.1924 -23.1992z" />
    <glyph glyph-name="announcement" unicode="U" 
d="M512 231.264c0 -100.464 -29.3916 -181.968 -65.7441 -182.607l0.432617 -0.0166016h-41.4727s-93.4082 73.168 -233.632 101.872c-4.27148 22.6562 -7.00781 49.6318 -7.00781 80.752s2.71973 58.1123 7.00781 80.752c140.224 28.7041 233.632 101.872 233.632 101.872
h41.4727l-0.432617 -0.015625c36.3525 -0.639648 65.7441 -82.1445 65.7441 -182.608zM445.824 65.9844c4.76758 0 9.93558 5.18359 12.5918 8.28809c6.41602 7.4873 12.624 19.1836 17.8877 33.7598c11.8398 32.6562 18.3525 76.416 18.3525 123.231
c0 46.8164 -6.52829 90.5928 -18.3525 123.232c-5.2793 14.5918 -11.4716 26.2559 -17.8877 33.7598c-2.65625 3.08789 -7.82425 8.28809 -12.5918 8.28809c-4.78418 0 -9.93652 -5.18359 -12.5918 -8.28809c-6.43262 -7.48828 -12.624 -19.168 -17.9043 -33.7598
c-11.8398 -32.6562 -18.3525 -76.416 -18.3525 -123.232c0 -46.8154 6.52832 -90.5918 18.3525 -123.231c5.2959 -14.5762 11.4883 -26.2402 17.9043 -33.7598c2.65527 -3.08887 7.82324 -8.28809 12.5918 -8.28809zM129.904 231.264l-0.00195312 -1.21291
c0 -20.3594 2.48047 -53.2187 5.53809 -73.3467c-23.6963 3.28027 -48.4961 5.16797 -74.1768 5.16797h-33.5361l-27.7275 47.3438v44.0801l27.7119 47.3438h33.5361c25.7119 0 50.4961 1.88867 74.1758 5.16797c-3.61621 -23.3271 -5.51953 -48.5752 -5.51953 -74.5439z
M422.88 311.312c23.6797 -0.576172 42.7842 -36.1924 42.7686 -80.0645c0 -43.8564 -19.1045 -79.4717 -42.7686 -80.0645c-4.54395 24.3682 -6.94434 51.6484 -6.94434 80.0645s2.41602 55.7119 6.94434 80.0645zM184.08 124.8l61.6475 -114.56
c0.985352 -1.7334 1.78418 -4.75684 1.78418 -6.75c0 -5.23633 -3.98146 -10.9717 -8.88771 -12.8027l-59.2803 -23.7275c-1.39941 -0.604492 -3.77344 -1.0957 -5.29883 -1.0957c-5.90527 0 -11.7461 4.67676 -13.0371 10.4395l-40.9277 160.769z" />
    <glyph glyph-name="basket" unicode="b" 
d="M410.576 269.968v0.0166016h105.504v-64h-32l-32 -256.017h-384l-32 256.017h-32v64h105.488l88.9434 115.744c-1.34961 3.25195 -2.44531 8.74805 -2.44531 12.2695c0 17.6641 14.336 32 32 32s32 -14.3359 32 -32s-14.3359 -32 -32 -32
c-1.1582 0 -3.03029 0.123047 -4.17873 0.274414l-73.9521 -96.2881h220.288l-73.9521 96.2881c-1.14746 -0.151367 -3.01953 -0.274414 -4.17773 -0.274414c-17.6641 0 -32 14.3359 -32 32s14.3359 32 32 32s32 -14.3359 32 -32
c0 -3.52148 -1.0957 -9.01758 -2.44531 -12.2705zM164.08 13.9844v63.9834h-64v-63.9834h64zM164.08 141.984v64h-64v-64h64zM292.08 13.9844v63.9834h-64v-63.9834h64zM292.08 141.984v64h-64v-64h64zM420.08 13.9844v63.9834h-64v-63.9834h64zM420.08 141.984v64h-64v-64
h64z" />
    <glyph glyph-name="beta" unicode="&#x3e;" 
d="M124.496 206.992c-2.89648 -2.14453 -6.5918 -3.21582 -11.1045 -3.23242h-25.5996v26.8799h23.6484c2.25586 0 4.43164 -0.191376 6.52734 -0.575165c2.09668 -0.384766 3.93652 -1.02443 5.55176 -2.00002c1.61621 -0.960938 2.89648 -2.30469 3.87207 -4.0166
c0.976562 -1.71191 1.45605 -3.91992 1.45605 -6.5918c0 -4.83203 -1.45605 -8.32031 -4.35155 -10.4639zM115.328 186.56c5.47168 0 9.87207 -1.26367 13.2002 -3.79199c3.32812 -2.52734 4.99121 -6.73535 4.99121 -12.624
c0 -3.02344 -0.511719 -5.4873 -1.53516 -7.40723c-1.02441 -1.91992 -2.38477 -3.47266 -4.09667 -4.59277c-1.72754 -1.11914 -3.71192 -1.93555 -5.96778 -2.39941c-2.24023 -0.496094 -4.60742 -0.736328 -7.07227 -0.736328h-27.04v31.5518h27.5205zM489.52 146.48
c-3.18359 -15.8721 10.832 -36.8486 4.75195 -51.4404c-6.25586 -14.832 -31.1192 -19.8076 -40.0635 -32.9922c-8.97559 -13.2959 -4.12793 -38.0322 -15.5205 -49.3115c-11.3594 -11.2959 -36.2715 -6.41602 -49.6797 -15.2959
c-13.3438 -8.81641 -18.3359 -33.5527 -33.2959 -39.7119c-2.6875 -1.12012 -5.61621 -1.58398 -8.63965 -1.58398c-11.9043 0 -26.0322 6.7832 -38.1602 6.7832c-1.69629 0 -3.39258 -0.12793 -5.05566 -0.431641c-15.5527 -3.05566 -29.6807 -24.0322 -46.1289 -24.0322
c-16.4795 0 -30.624 20.9766 -46.1758 24.0322c-1.64746 0.288086 -3.34375 0.431641 -5.08789 0.431641c-12.0957 0 -26.208 -6.7832 -38.1602 -6.7832c-3.04004 0 -5.95215 0.479492 -8.62402 1.58398c-14.9922 6.14355 -19.9678 30.8799 -33.2793 39.7598
c-13.4082 8.87988 -38.3525 4 -49.7441 15.3594c-11.3604 11.2324 -6.46387 35.9043 -15.4561 49.2481c-8.89648 13.2002 -33.8721 18.1445 -40.0801 32.9922c-6.1123 14.6084 7.93555 35.5205 4.78418 51.3926c-3.05664 15.4072 -24.1924 29.4072 -24.1924 45.7119
c0 16.3037 21.1357 30.2881 24.1924 45.6953c3.15137 15.9043 -10.8643 36.8643 -4.76855 51.4727c6.22461 14.8477 31.168 19.8076 40.0801 32.9756c8.99219 13.3125 4.12793 38.0322 15.5205 49.3125c11.376 11.2959 36.2715 6.43164 49.7119 15.3115
c13.3115 8.83203 18.2881 33.5518 33.2793 39.7285c2.68848 1.10352 5.60059 1.55176 8.64062 1.55176c11.9199 0 26.0322 -6.76855 38.1602 -6.76855h0.0976562c1.38379 0 3.6123 0.201172 4.97363 0.448242c15.5361 3.05566 29.6807 24.0156 46.1445 24.0156
c16.4482 0 30.5762 -20.96 46.1279 -24.0156c1.64746 -0.303711 3.36035 -0.448242 5.08789 -0.448242c12.0957 0 26.2236 6.76855 38.1436 6.76855l0.408203 0.00390625c2.35352 0 6.04102 -0.697266 8.23242 -1.55566c14.9756 -6.17676 19.9521 -30.8965 33.2803 -39.7764
c13.3916 -8.87988 38.3516 -4.01562 49.7275 -15.3438c11.376 -11.248 6.51175 -35.9688 15.4883 -49.2646c8.92773 -13.2002 33.8554 -18.1592 40.08 -33.0078c6.08008 -14.6074 -7.96872 -35.5195 -4.80075 -51.4082c3.07227 -15.4072 24.209 -29.4072 24.209 -45.6953
s-21.1523 -30.2881 -24.209 -45.7119zM155.408 153.616c2.25586 4.25586 3.3916 9.26367 3.3916 15.0723c0 7.18359 -1.75977 13.3271 -5.24805 18.4316c-3.4873 5.10352 -8.76758 8.67188 -15.8555 10.7041c5.13574 2.46387 9.02344 5.63184 11.6641 9.50391
c2.62402 3.85547 3.95117 8.67188 3.95117 14.4795c0 5.36035 -0.895508 9.87209 -2.65527 13.5205c-1.77637 3.64746 -4.27246 6.57614 -7.48828 8.76755c-3.21582 2.20801 -7.07227 3.77637 -11.584 4.75195c-4.51172 0.976562 -9.5039 1.45609 -14.9756 1.45609h-54.0801
v-114.943h55.6797h0.13868c4.18652 0 10.8691 0.867188 14.917 1.93555c4.87988 1.28027 9.23242 3.26367 13.04 5.95215c3.80859 2.68848 6.84863 6.12793 9.10449 10.3682zM263.104 135.36v21.2314h-61.9834v28.1758h55.6963v19.6484h-55.6963v24.6396h60.7041v21.2481
h-85.9678v-114.943h87.2471zM330.88 229.056h34.4639v21.2481h-94.1758v-21.2481h34.4482v-93.6953h25.2637v93.6953zM437.76 135.36h26.2558l-42.9912 114.943h-25.9043l-43.4717 -114.943h25.4238l9.00781 25.5996h42.9922zM408 221.968l14.4639 -42.1758h-29.7598
l14.96 42.1758h0.335938z" />
    <glyph glyph-name="bike" unicode="3" 
d="M293.04 150.272c2.39844 -1.42188 4.34473 -4.83789 4.34473 -7.62598c0 -1.08105 -0.369141 -2.75391 -0.824219 -3.73438l-65.4883 -135.232c-1.95215 -4.01562 -6.3047 -4.91211 -9.64845 -1.93555l-5.08789 4.51172
c-2.20312 2.14355 -3.99023 6.37695 -3.99023 9.4502c0 1.01465 0.224609 2.62988 0.501953 3.60547l35.8086 104.977c0.235352 0.709961 0.426758 1.89356 0.426758 2.64161c0 3.21191 -2.44238 6.73046 -5.45117 7.85448l-100.016 36.8154
c-4.20801 1.53613 -8.57617 6.33594 -9.72852 10.6885l-6.92773 26.1924c-0.236328 1.14551 -0.428703 3.02637 -0.428703 4.19629c0 3.1084 1.27441 7.80859 2.84472 10.4912l85.5205 129.264c2.47949 3.72852 6.81543 3.93652 9.64746 0.480469l32.416 -39.6162
c0.768555 -0.912109 0.768555 -2.17578 1.12012 -3.32812c0.288086 -0.160156 0.639648 -0.0322266 0.912109 -0.255859l88.7676 -70.9277c3.26367 -2.9248 6.03711 -8.85252 6.19238 -13.2324l-0.0957031 -5.37599
c-0.0966797 -4.47949 -3.37598 -6.31934 -7.26465 -4.12793l-109.536 61.9678l-49.9834 -57.7598c-2.92871 -3.4082 -2.16016 -7.9834 1.72754 -10.208zM223.456 387.04c0 26.9551 21.877 48.832 48.832 48.832s48.832 -21.877 48.832 -48.832
s-21.877 -48.832 -48.832 -48.832s-48.832 21.877 -48.832 48.832zM105.168 -48.6562c-57.9844 0 -105.168 47.168 -105.168 105.152s47.168 105.152 105.152 105.152c57.9834 0 105.168 -47.168 105.168 -105.152s-47.168 -105.152 -105.152 -105.152zM105.168 137.072
c-44.4316 0 -80.5918 -36.1445 -80.5918 -80.5762s36.1436 -80.5762 80.5918 -80.5762s80.5918 36.1445 80.5918 80.5762s-36.1602 80.5762 -80.5918 80.5762zM406.848 -48.6562c-57.9834 0 -105.168 47.168 -105.168 105.152s47.1846 105.152 105.168 105.152
c58 0 105.152 -47.168 105.152 -105.152s-47.1523 -105.152 -105.152 -105.152zM406.848 137.072c-44.4316 0 -80.5918 -36.1445 -80.5918 -80.5762s36.1602 -80.5762 80.5918 -80.5762c44.4326 0 80.5927 36.1445 80.5927 80.5762s-36.1601 80.5762 -80.5927 80.5762z" />
    <glyph glyph-name="biotech" unicode="B" 
d="M413.296 291.36c53.3281 -0.0615234 96.6875 -43.3926 96.7842 -96.7207v-9.42383c-0.0615234 -53.3545 -43.4141 -96.7061 -96.7686 -96.7676h-102.592c-7.85547 -13.1201 -20.0635 -26.6084 -36.8955 -40.7998
c-0.392578 -0.338867 -0.714844 -1.03418 -0.720703 -1.55273v-0.00976562c0 -0.522461 0.330078 -1.21289 0.736328 -1.54199c32.7998 -27.1523 47.8564 -57.792 47.6797 -97.9199c-0.927734 2.94434 -2.11133 6.30371 -3.61523 9.95215
c-0.291992 0.689453 -1.1377 1.24902 -1.88672 1.24902c-0.143555 0 -0.374023 -0.0292969 -0.513672 -0.0654297c-0.424805 -0.148438 -1.13477 -0.291992 -1.58398 -0.319336h-42.4316c-2.78418 0 -5.04004 1.93555 -5.04004 4.28809
c0 2.38379 2.25586 4.30371 5.04004 4.30371h38.7197c1.1084 0.0126953 2.00879 0.922852 2.00879 2.03125c0 0.276367 -0.104492 0.700199 -0.232422 0.94434c-1.82422 3.4082 -3.61621 6.49609 -5.47266 9.44043c-0.305664 0.52832 -1.05078 0.958008 -1.66113 0.958008
c-0.117188 0 -0.304688 -0.0205078 -0.418945 -0.0458984l-0.55957 -0.112305c-0.155273 -0.0498047 -0.413086 -0.0996094 -0.576172 -0.112305h-31.8242c-2.78418 0 -5.04004 1.93652 -5.04004 4.28809c0 2.38379 2.25586 4.28809 5.04004 4.28809h24.6406h0.00390625
c0.695312 0 1.50293 0.508789 1.80371 1.13574c0.320312 0.671875 0.240234 1.50391 -0.223633 2.1123c-2.92871 3.82422 -6.12793 7.66406 -9.53613 11.376c-0.383789 0.400391 -0.927734 0.65625 -1.48828 0.65625h-15.2002c-2.78418 0 -5.05566 1.91992 -5.05566 4.28809
s2.27148 4.28809 5.05566 4.28809h2.5127h0.00488281c0.765625 0 1.60938 0.580078 1.88281 1.2959c0.0732422 0.192383 0.132812 0.516602 0.132812 0.723633c0 0.494141 -0.295898 1.16699 -0.661133 1.5c-6.28809 5.71192 -12.5117 10.752 -19.0234 15.4082
l-1.10449 0.847656c-0.289062 0.211914 -0.814453 0.384764 -1.17285 0.384764c-0.367188 0 -0.902344 -0.179684 -1.19531 -0.400387l-1.0713 -0.816406c-6.44824 -4.62402 -12.6885 -9.67969 -19.0244 -15.4238
c-0.357422 -0.333008 -0.648422 -0.999022 -0.648422 -1.48828c0 -1.1084 0.899399 -2.01855 2.00877 -2.03125h2.51173c2.78418 0 5.04002 -1.91992 5.04002 -4.28809s-2.25584 -4.28809 -5.04002 -4.28809h-15.2002
c-0.486328 -0.00878906 -1.15332 -0.302734 -1.48828 -0.65625c-3.34375 -3.69629 -6.55957 -7.50391 -9.53516 -11.376c-1.11133 -0.00195312 -2.01172 -0.905273 -2.01172 -2.01562c0 -1.11328 0.902344 -2.0166 2.01562 -2.0166
c0.546875 0 1.26172 0.351562 1.5957 0.78418h24.6397c2.76855 0 5.0244 -1.91992 5.0244 -4.28809s-2.24022 -4.28809 -5.0244 -4.28809h-31.8233c-0.128906 0 -0.335938 0.0478516 -0.560547 0.0966797l-0.576172 0.143555
c-0.0908203 0.0146484 -0.238281 0.0263672 -0.330078 0.0263672c-0.626953 0 -1.41016 -0.427734 -1.75 -0.954102c-1.8877 -2.99219 -3.67969 -6.08008 -5.47168 -9.45605c-0.335938 -0.624023 -0.320312 -1.36035 0.0478516 -1.98438
s1.02441 -0.975586 1.72852 -0.975586h38.7197c2.76758 0 5.02441 -1.93652 5.02441 -4.30469c0 -2.36719 -2.24023 -4.28711 -5.02441 -4.28711h-42.416c-0.496094 0 -1.00781 0.143555 -1.56836 0.303711c-0.155273 0.0478516 -0.413086 0.0869141 -0.576172 0.0869141
c-0.742188 0 -1.55859 -0.5625 -1.82324 -1.25488c-1.12793 -2.70605 -2.75488 -7.1709 -3.63184 -9.96777c-0.176758 40.1436 14.8955 70.7676 47.6953 97.9355c0.448242 0.383789 0.704117 0.959961 0.720718 1.55176
c0.015625 0.592773 -0.256851 1.16797 -0.704117 1.55273c-18.2402 15.376 -29.7441 28.8154 -36.8965 40.7998h-102.607c-53.3545 0.0615234 -96.6992 43.4131 -96.752 96.7676v9.42383c0.0615234 53.3457 43.4062 96.6904 96.752 96.752h102.575
c7.16797 12 18.6729 25.4404 36.9121 40.8008c0.395508 0.336914 0.718765 1.03223 0.720718 1.55176c-0.0078125 0.517578 -0.337906 1.20605 -0.736343 1.53613c-32.7998 27.168 -47.8721 57.792 -47.6963 97.9355c0.876953 -2.80078 2.50391 -7.27344 3.63184 -9.9834
c0.285156 -0.6875 1.11914 -1.24609 1.86328 -1.24609c0.155273 0 0.40332 0.0351562 0.552734 0.078125c0.421875 0.141602 1.12402 0.27832 1.56836 0.303711h42.416c2.76758 0 5.02441 -1.91992 5.02441 -4.28809s-2.25684 -4.28809 -5.02441 -4.28809h-38.7197
c-1.10938 -0.0126953 -2.00879 -0.922852 -2.00879 -2.03223c0 -0.276367 0.104492 -0.699219 0.232422 -0.943359c1.41699 -2.66406 3.86816 -6.90039 5.47168 -9.45605c0.327148 -0.524414 1.09375 -0.949219 1.71094 -0.949219
c0.107422 0 0.280273 0.0166016 0.385742 0.0371094l0.527344 0.111328c0.15625 0.0488281 0.414062 0.0986328 0.576172 0.112305h31.8242c2.76758 0 5.02441 -1.91992 5.02441 -4.28809s-2.25684 -4.28809 -5.02441 -4.28809h-24.6397
c-1.1084 -0.00390625 -2.00879 -0.907227 -2.00879 -2.01562c0 -0.373047 0.183594 -0.917969 0.408203 -1.21582c2.50488 -3.24219 6.77734 -8.33203 9.53613 -11.3604c0.331055 -0.362305 0.99707 -0.65625 1.48828 -0.65625h15.2002
c2.7832 0 5.03905 -1.91992 5.03905 -4.28809c0 -2.36719 -2.25584 -4.28711 -5.03905 -4.28711h-2.51273c-1.1123 -0.000976562 -2.01562 -0.90332 -2.01562 -2.0166c0 -0.490234 0.293976 -1.15723 0.656281 -1.48828c5.00684 -4.56641 13.5371 -11.4834 19.04 -15.4395
l1.0713 -0.816406c0.294922 -0.216797 0.830078 -0.392578 1.19531 -0.392578c0.357422 0 0.882812 0.168945 1.17285 0.376953l1.10449 0.832031c6.54395 4.7041 12.7676 9.75977 19.04 15.4395c1.08008 0.0234375 1.95703 0.918945 1.95703 2c0 1.10352 -0.895508 2 -2 2
c-0.415039 0 -1.00488 -0.22168 -1.31738 -0.495117h-2.51172c-2.76855 0 -5.04004 1.91992 -5.04004 4.28711c0 2.36816 2.25586 4.28809 5.04004 4.28809h15.1992c0.491211 0 1.15723 0.293945 1.48828 0.65625c3.37598 3.67969 6.57617 7.50391 9.53613 11.3604
c0.480469 0.607422 0.560547 1.42383 0.223633 2.11133c-0.335938 0.688477 -1.03906 1.12012 -1.80762 1.12012h-24.6396c-2.78418 0 -5.04004 1.93652 -5.04004 4.28809c0 2.35254 2.25586 4.28809 5.04004 4.28809h31.8232
c0.171875 -0.0126953 0.444336 -0.0634766 0.608398 -0.112305l0.511719 -0.111328c0.115234 -0.0263672 0.303711 -0.046875 0.420898 -0.046875c0.597656 0 1.33398 0.415039 1.64355 0.926758c1.60254 2.55664 4.05371 6.79297 5.47168 9.45605
c0.125977 0.246094 0.228516 0.670898 0.228516 0.947266c0 0.306641 -0.124023 0.770508 -0.276367 1.03613c-0.368164 0.624023 -1.02441 0.992188 -1.72754 0.992188h-38.7207c-2.78418 0 -5.04004 1.91992 -5.04004 4.28809s2.25586 4.28809 5.04004 4.28809h42.4326
c0.479492 0 0.991211 -0.143555 1.58398 -0.303711c0.141602 -0.0380859 0.375977 -0.0683594 0.523438 -0.0683594c0.748047 0 1.58887 0.560547 1.87598 1.25195c1.11816 2.70312 2.73828 7.16211 3.61621 9.95215c0.175781 -40.1279 -14.8643 -70.752 -47.6797 -97.9199
c-0.463867 -0.368164 -0.736328 -0.944336 -0.736328 -1.53613s0.272461 -1.16797 0.719727 -1.55176c16.8643 -14.208 29.04 -27.7119 36.8643 -40.7998h102.624zM236.624 299.808c2.76758 0 5.0244 -1.91992 5.05565 -4.28711
c0 -2.14453 -1.90332 -3.84082 -4.30371 -4.16016h33.4082c-2.41602 0.319336 -4.32031 2.01562 -4.32031 4.16016c0 2.36719 2.25586 4.28711 5.04004 4.28711h3.61621c0.311523 -0.264648 0.896484 -0.479492 1.30566 -0.479492
c1.11328 0 2.01562 0.90332 2.01562 2.01562c0 1.10938 -0.900391 2.0127 -2.00977 2.0166c-5.90332 4.99121 -13.0234 10.4795 -21.1992 16.3037c-0.290039 0.206055 -0.813461 0.373047 -1.16795 0.373047c-0.355469 0 -0.878906 -0.166992 -1.16797 -0.373047
c-8.16016 -5.82422 -15.2803 -11.3125 -21.1846 -16.3037c-0.391602 -0.333984 -0.709946 -1.02148 -0.709946 -1.53613c0 -1.10742 0.898422 -2.01074 2.00584 -2.0166h3.61624zM271.504 79.9678c-2.78418 0 -5.05566 1.91992 -5.07227 4.30469
c0 2.14355 1.9043 3.83984 4.32031 4.15918h-33.4238c2.41602 -0.319336 4.30373 -2.01562 4.30373 -4.15918c0 -2.38477 -2.24022 -4.30469 -5.02342 -4.30469h-3.61623c-1.10742 -0.00488281 -2.00684 -0.908203 -2.00684 -2.01562
c0 -0.514648 0.318359 -1.20312 0.710938 -1.53613c5.65723 -4.74609 15.1475 -12.0508 21.1836 -16.3037c0.290039 -0.206055 0.812485 -0.373047 1.16795 -0.373047s0.878906 0.166992 1.16797 0.373047c8.16016 5.82324 15.2803 11.2959 21.2002 16.3037
c0.624023 0.55957 0.864258 1.42383 0.576172 2.22363c-0.288086 0.800781 -1.04004 1.32812 -1.88867 1.32812h-3.59961zM477.808 185.184v9.4248c-0.0439453 35.5664 -28.9453 64.46 -64.5117 64.4961h-159.231v-138.433h159.231
c35.5752 0.0351562 64.4766 28.9365 64.5117 64.5117z" />
    <glyph glyph-name="bus" unicode="1" 
d="M476.144 280.32c2.12891 -17.4561 3.85645 -46.1445 3.85645 -63.7441v-186.688c0 -17.5996 -14.4004 -32 -32 -32v-40c0 -13.1836 -10.7998 -24 -24 -24h-16c-13.2002 0 -24 10.8164 -24 24v40h-256v-40c0 -13.1836 -10.7998 -24 -24 -24h-16
c-13.2002 0 -24 10.8164 -24 24v40c-17.5996 0 -32 14.4004 -32 32v186.688c0.182617 17.6514 1.91016 46.2158 3.85645 63.7598l16.2871 133.808c2.12891 17.4561 18.2568 31.7441 35.8564 31.7441h336c17.5996 0 33.7276 -14.2881 35.8565 -31.7598zM96 397.888v-6.39941
c0 -8.80078 7.2002 -16 16 -16h288c8.7998 0 16 7.18359 16 16v6.39941c0 8.7998 -7.2002 16 -16 16h-288c-8.7998 0 -16 -7.2002 -16 -16zM98.3359 97.8877h0.0078125c15.4609 0 28.0078 12.5479 28.0078 28.0088c0 15.4551 -12.5439 28.0029 -28 28.0078h-0.0078125
c-15.46 0 -28.0078 -12.5479 -28.0078 -28.0078c0 -15.4561 12.5439 -28.0039 28 -28.0088zM418.336 97.8877h0.0078125c15.4609 0 28.0078 12.5479 28.0078 28.0088c0 15.4551 -12.5439 28.0029 -28 28.0078h-0.0078125c-15.46 0 -28.0078 -12.5479 -28.0078 -28.0078
c0 -15.4561 12.5439 -28.0039 28 -28.0088zM448 189.888v26.6885c0 16.3203 -1.66406 43.7119 -3.61621 59.8721l-8.94336 73.4395h-358.881l-8.92773 -73.4395c-1.96777 -16.1602 -3.63184 -43.5518 -3.63184 -59.8721v-26.6885h384z" />
    <glyph glyph-name="calendar" unicode="r" 
d="M448.896 382.784c30.3291 -0.0966797 55.0088 -24.79 55.0879 -55.1201v-330.672c-0.0878906 -30.3301 -24.7744 -55.0166 -55.1045 -55.1045h-385.776c-30.3291 0.0878906 -55.0156 24.7744 -55.1035 55.1045v330.672
c0.0878906 30.3301 24.7744 55.0234 55.1035 55.1201h24.8008v-55.1045h88.1758v55.1045h159.824v-55.1045h88.1758v55.1045h24.8164zM448.896 -3.00781h-0.0166016v220.464h-385.776v-220.464h385.793zM151.28 437.888v-93.6797h-38.5762v93.6797h38.5762zM399.28 437.888
v-93.6797h-38.5762v93.6797h38.5762z" />
    <glyph glyph-name="camera" unicode="!" 
d="M152 141.888c0 57.4082 46.5918 104 104 104s104 -46.5918 104 -104c0 -57.4072 -46.5918 -104 -104 -104s-104 46.5928 -104 104zM480 317.888c17.5996 0 32 -14.3994 32 -32v-288c0 -17.5996 -14.4004 -32 -32 -32h-448c-17.5996 0 -32 14.4004 -32 32v288
c0 17.6006 14.4004 32 32 32h112c8 32 16 64 48 64h128c32 0 40 -32 48 -64h112zM256 -0.112305c78.4316 0 142 63.5684 142 142c0 78.4326 -63.5684 142 -142 142s-142 -63.5674 -142 -142c0 -78.4316 63.5684 -142 142 -142zM480 221.888v32h-64v-32h64z" />
    <glyph glyph-name="car" unicode="2" 
d="M505.52 242.608c3.55273 -2.59277 6.48047 -8.2881 6.48047 -12.7041v-8.99217c-0.183594 -4.27832 -3.6387 -8.82324 -7.71194 -10.1445l-9.52048 -2.6875c-4.22363 -1.21582 -11.2959 -2.19238 -15.6953 -2.19238h-1.40823v-128
c0 -16.7842 -13.2002 -30.2559 -29.664 -31.5361v-40.4639c0 -13.1836 -10.7998 -24 -24 -24h-16c-13.2002 0 -24 10.8164 -24 24v40h-256v-40c0 -13.1836 -10.7998 -24 -24 -24h-16c-13.2002 0 -24 10.8164 -23.9844 24v40.7207
c-15.8398 1.87207 -28.416 14.96 -28.416 31.2793v128h-2.67188c-4.41602 0 -11.4717 0.976562 -15.7119 2.19238l-9.51953 2.6875c-4.24023 1.18457 -7.69629 5.76074 -7.69629 10.1602v8.99217c0.251953 4.28711 3.15527 9.97072 6.48047 12.6885l11.9678 8.59178
c3.55176 2.5918 10.0801 4.6875 14.4795 4.6875h10.4805c1.3252 4.49416 3.9707 11.6045 5.90332 15.8721l46.2402 97.2158c7.53613 15.9209 28.1279 28.9121 45.7285 28.9121h230.704c17.5996 0 38.1914 -12.9912 45.7432 -28.9121l46.2246 -97.2158
c1.93848 -4.26562 4.58398 -11.376 5.9043 -15.8721h9.23145c4.34961 -0.202148 10.8369 -2.30176 14.4805 -4.6875zM416 113.888h0.0078125c15.4609 0 28.0078 12.5479 28.0078 28.0088c0 15.4551 -12.5439 28.0029 -28 28.0078h-0.0078125
c-15.46 0 -28.0078 -12.5479 -28.0078 -28.0078c0 -15.4561 12.5439 -28.0039 28 -28.0088zM76.2725 254.016c-1.84082 -4.65527 -3.56836 -10.1279 -5.04004 -16.1279h370.815c-1.53613 6.16016 -3.32812 11.8086 -5.2002 16.5283
c-0.431641 1.08789 -0.847656 2.43164 -1.2959 3.37598l-46.2881 97.376c-2.31934 4.81641 -11.584 10.7197 -16.8633 10.7197h-231.536c-5.26465 0 -14.5439 -5.90332 -16.832 -10.752l-46.3047 -97.3115c-0.495117 -1.05664 -0.975586 -2.56055 -1.45508 -3.80859z
M96 169.888h-0.0078125c-15.4609 0 -28.0078 -12.5469 -28.0078 -28.0078c0 -15.4561 12.5439 -28.0039 28 -28.0078h0.0078125c15.46 0 28.0078 12.5479 28.0078 28.0078c0 15.4561 -12.5439 28.0039 -28 28.0078z" />
    <glyph glyph-name="careers" unicode="c" 
d="M421.808 413.888c11.0088 0 26.1924 -9.61523 26.1924 -20.6074v-459.393h-64v48h-256v-48h-64v459.393c0 10.9922 8.89648 20.6074 19.8721 20.6074h19.8721c10.9756 0 24.2559 -9.61523 24.2559 -20.6074v-123.393h256v123.393
c0 10.9922 6.94434 20.6074 17.9355 20.6074h19.8721zM384 29.8877v64h-256v-64h256zM384 157.888v48h-256v-48h256z" />
    <glyph glyph-name="classification" unicode="e" 
d="M473.893 204.479h-0.0146484h41.4131l-77.209 -226.523h-360.916l-77.166 226.523h41.3984l-29.1836 85.6064h51.7998l-27.4287 80.457h47.1777l-25.7324 75.5127h399.126l-25.7314 -75.5127h47.2793l-27.4287 -80.457h51.7998zM91.3994 422.225l17.6416 -51.668h297.238
l17.6133 51.668h-332.493zM87.5371 295.044l1.65332 -56.6133h354.538l19.2949 56.6133h-375.486zM64.834 157.974l1.75488 -61.7617h135.271l17.4082 -40.8428l117.189 0.936527l15.5361 39.9062h116.004l21.0508 61.7617h-424.214z" />
    <glyph glyph-name="clock" unicode="{" 
d="M329.376 71.2637l-105.376 105.376v141.248h64v-114.752l86.624 -86.624zM256 445.888c141.392 0 256 -114.607 256 -256c0 -141.392 -114.608 -256 -256 -256s-256 114.608 -256 256c0 141.393 114.608 256 256 256zM256 -2.1123c106.032 0 192 85.9688 192 192
c0 106.032 -85.9678 192 -192 192s-192 -85.9678 -192 -192c0 -106.031 85.9678 -192 192 -192z" />
    <glyph glyph-name="contact" unicode="C" 
d="M450.864 321.488c51.584 -29.3604 53.1357 -60.7686 53.1357 -82.6885v-3.2959c0 -5.00781 -4.35156 -9.12012 -9.63184 -9.12012h-116.368c-5.2959 0 -9.63184 4.1123 -9.63184 9.12012v11.1045c0 27.6797 -26.4961 32.1279 -41.1045 34.4795
c-14.6553 2.36816 -50.9756 4.63965 -71.1992 4.63965h-0.144531c-20.208 0 -56.5596 -2.30371 -71.1836 -4.63965s-41.1201 -6.76758 -41.1201 -34.4795v-11.1045c0 -5.00781 -4.32031 -9.12012 -9.61621 -9.12012h-116.384c-5.2959 0 -9.61621 4.1123 -9.61621 9.12012
v3.2959c0 21.9199 1.55176 53.3281 53.1201 82.6719c61.3916 34.8965 149.12 38.4004 194.8 38.4004c-0.136719 0.0380859 -0.248062 0.0234375 -0.248062 -0.0322266c0 -0.15918 0.128906 -0.288086 0.288086 -0.288086c0.0761871 0 0.0947418 0.115234 0.0400543 0.255859
l0.0644531 0.0800781c45.6797 0 133.439 -3.50391 194.8 -38.3994zM256 229.888c27.4883 0 84.7041 3.93652 113.776 -31.3115c29.0879 -35.2324 101.823 -210.688 36.96 -210.688h-301.473c-64.8477 0 7.88867 175.456 36.96 210.688
c29.0723 35.2637 86.3047 31.3115 113.776 31.3115zM256 34.3838h0.015625c42.791 0 77.5205 34.7295 77.5205 77.5205c0 42.7822 -34.7217 77.5107 -77.5039 77.5195h-0.0166016c-42.791 0 -77.5195 -34.7285 -77.5195 -77.5195
c0 -42.7822 34.7217 -77.5117 77.5039 -77.5205z" />
    <glyph glyph-name="crosslink" unicode="d" 
d="M85.5039 96.8965c21.8721 0 41.6162 -9.07227 55.6963 -23.6484l208.768 104.384c-0.541016 3.36133 -0.980469 8.85156 -0.980469 12.2559s0.439453 8.89551 0.980469 12.2559l-208.768 104.385c-12.6104 -13.0283 -37.5586 -23.6006 -55.6895 -23.6006
c-42.7822 0 -77.5039 34.7217 -77.5039 77.5039s34.7217 77.5039 77.5039 77.5039s77.5039 -34.7217 77.5039 -77.5039c0 -3.41797 -0.44043 -8.92969 -0.982422 -12.3037l208.768 -104.384c12.583 13.0537 37.5098 23.6474 55.6406 23.6474h0.0556641
c41.9219 -0.851562 75.9453 -35.5732 75.9453 -77.5039c0 -41.9297 -34.0234 -76.6514 -75.9453 -77.5039h-0.0898438c-18.123 0 -43.0352 10.5947 -55.6064 23.6484l-208.768 -104.353c0.541016 -3.36914 0.980469 -8.875 0.980469 -12.2881
c0 -42.7822 -34.7227 -77.5039 -77.5039 -77.5039c-42.7822 0 -77.5049 34.7217 -77.5049 77.5039c0 42.7803 34.7207 77.502 77.5 77.5049z" />
    <glyph glyph-name="database" unicode="D" 
d="M31.5518 385.024c0 33.5996 100.288 60.8477 224 60.8477s224 -27.248 224 -60.8477c0 -33.6006 -100.288 -60.8486 -224 -60.8486s-224 27.248 -224 60.8486zM255.552 253.888c104.32 0 191.728 15.3125 216.656 36c4.6084 -6.39941 7.34375 -13.0879 7.34375 -20
c0 -44.1602 -100.288 -80 -224 -80s-224 35.8398 -224 80c0 6.91211 2.72071 13.6006 7.34473 20c24.9111 -20.6875 112.319 -36 216.655 -36zM255.552 -2.1123c104.32 0 191.728 15.3125 216.656 36c4.6084 -6.39941 7.34375 -13.0879 7.34375 -20
c0 -41.0557 -86.6875 -74.9121 -198.288 -79.4717l-0.511719 -0.015625c-8.27148 -0.320312 -16.6719 -0.512695 -25.2002 -0.512695c-8.52734 0 -16.9277 0.192383 -25.2002 0.512695l-0.527344 0.015625c-111.601 4.55957 -198.272 38.4316 -198.272 79.4717
c0 6.91211 2.72071 13.6006 7.34473 20c24.9111 -20.6875 112.319 -36 216.655 -36zM255.552 57.8877c-123.712 0 -224 35.8398 -224 80c0 6.91211 2.72071 13.6006 7.34473 20c24.9111 -20.6875 112.336 -36 216.655 -36c104.32 0 191.728 15.3125 216.656 36
c4.6084 -6.39941 7.34375 -13.0879 7.34375 -20c0 -44.1602 -100.288 -80 -224 -80z" />
    <glyph glyph-name="discuss" unicode="\" 
d="M504.064 147.744c0 -41.5039 -42.5605 -75.8887 -98.2246 -82.1279c-4.55957 -22.3838 -3.80762 -47.8086 9.15234 -73.248c-23.9365 18.1914 -43.4727 45.8721 -55.8242 74.752c-17.0879 3.05566 -32.6719 8.84766 -45.8242 16.6562
c70.8164 26.7197 119.968 78.7197 123.952 139.199c39.4404 -13.3271 66.7686 -42 66.7686 -75.2314zM404.304 230.88c0 -73.4561 -89.3438 -133.023 -199.52 -133.008c-6.35254 0 -12.6406 0.208008 -18.832 0.608398
c-11.5039 -33.9043 -33.4717 -68.1924 -61.4717 -89.4248c18.4316 36.1602 12.1758 72.3203 1.10352 99.7119c-70.7998 20.4482 -120.32 67.4082 -120.32 122.112c0 73.4561 89.3447 133.008 199.521 133.008s199.52 -59.5518 199.52 -133.008z" />
    <glyph glyph-name="documentation" unicode=";" 
d="M221.904 256h191.983v-32h-191.983v32zM221.904 192h191.983v-31.9844h-191.983v31.9844zM221.904 128.016h191.983v-32h-191.983v32zM221.904 64.0156h127.983v-32h-127.983v32zM477.872 352c17.6162 0 32 -14.4004 31.9844 -32v-352c0 -17.6162 -14.3848 -32 -32 -32
h-319.984c-17.584 0 -32 14.3838 -32 32v64h-96c-17.5996 0 -32 14.4004 -32 32v352c0 17.5996 14.4004 32 32 32h320c17.5996 0 32 -14.4004 32 -32v-64h96zM125.888 320c0 17.5996 14.416 32 32 32h176v48h-288v-320h80v240zM461.888 -16v320h-288v-320h288z" />
    <glyph glyph-name="drug" unicode="u" 
d="M415.232 291.36c53.3535 -0.0537109 96.7061 -43.3984 96.7676 -96.752v-9.4248c-0.0615234 -53.3535 -43.4141 -96.7061 -96.7676 -96.7676h-318.48c-53.3545 0.0615234 -96.6992 43.4141 -96.752 96.7676v9.4248c0.0615234 53.3447 43.4062 96.6904 96.752 96.752
h318.48zM479.744 185.184v9.4248c-0.0439453 35.5664 -28.9453 64.46 -64.5117 64.4951h-159.232v-138.432h159.232c35.5752 0.0351562 64.4766 28.9365 64.5117 64.5117z" />
    <glyph glyph-name="elixir" unicode="%" 
d="M445.472 358h-0.0146484c-10.4893 0 -23.7793 7.0459 -29.665 15.7275c-4.08008 -2.33594 -12.416 -6.83105 -23.8242 -13.168c0.591797 -2.02637 1.07227 -5.38477 1.07227 -7.49609c0 -14.7578 -11.9775 -26.7363 -26.7354 -26.7363
c-6.31738 0 -14.9844 3.70996 -19.3447 8.28125c-6.27246 -3.77637 -12.7998 -7.74414 -19.5518 -11.9209c0.330078 -1.35352 0.597656 -3.58301 0.597656 -4.97656c0 -11.5967 -9.41113 -21.0078 -21.0078 -21.0078c-4.03125 0 -9.86816 2.02832 -13.0303 4.5293
c-6.75195 -4.49609 -13.5674 -9.13672 -20.416 -13.8887c0.169922 -0.834961 0.308594 -2.2041 0.308594 -3.05664c0 -8.46094 -6.86719 -15.3281 -15.3281 -15.3281c-2.27441 0 -5.7168 0.924805 -7.68457 2.06543c-25.7754 -19.0889 -51.1035 -39.9209 -73.0234 -61.7285
c26.2402 -63.7275 36.1758 -117.2 34.1279 -131.792c-1.98438 -14.4639 -13.1846 -32.4795 -31.3604 -27.1357c-5.67969 1.66406 -4.20801 6.65625 -0.55957 8.41602c2.27148 1.04004 7.90332 4.73535 9.04004 13.4561c2.04785 16.0635 -7.34473 64.208 -26.8643 120.704
c-0.0800781 -0.112305 -0.175781 1.04004 -0.240234 0.943359c-9.83984 -10.752 -18.6875 -29.5996 -26.7197 -29.5996h14.0801c3.95215 0 7.18359 -4.83203 7.18359 -8.75195c0 -4 -3.23145 -8.81641 -7.18359 -8.81641h-25.4717
c-6.92871 0 -13.0889 -17.584 -18.5762 -17.584h44.0479c3.95215 0 7.18359 -4.76758 7.18359 -8.75195c0 -3.95215 -3.23145 -8.78418 -7.18359 -8.78418h-53.1846c-5.82324 -17.5674 -10.6719 -17.5674 -14.624 -35.1357h67.8086
c3.95215 0 7.18359 -4.83203 7.18359 -8.78418s-3.23145 -8.78418 -7.18359 -8.78418h-73.9521c-29.376 -70.2559 16.832 -98.2715 18 -98.9756c6.49609 -3.80762 -0.383789 -14.5117 -15.4883 -8.01562c-103.775 44.624 -9.08789 187.647 76.7842 260.928
c-22.6396 60.0801 -55.8555 126.384 -98.1279 171.872c-0.0957031 0.0957031 -0.192379 0.399414 -0.255856 0.479492c-6.7041 7.16797 -1.87207 9.79199 3.95215 4.06445c0.0478516 -0.0644531 0.111324 -0.015625 0.160152 -0.0800781
c49.8076 -48.5283 85.6152 -108.096 109.888 -162.368c20.8154 17.7764 46.4961 36.0801 73.3603 53.5361c-0.28125 1.06348 -0.50975 2.82031 -0.50975 3.9209c0 8.47852 6.88184 15.3604 15.3604 15.3604c3.09766 0 7.5332 -1.62109 9.90137 -3.61719
c6.65527 4.1123 13.3271 8.16016 19.9199 12.0957c-1.21094 2.4375 -2.19336 6.62402 -2.19336 9.34473c0 11.5967 9.41211 21.0078 21.0088 21.0078c6.18066 0 13.9941 -4.16504 17.4404 -9.2959c6.39941 3.61523 12.624 7.08789 18.6396 10.416
c-1.56445 3.12012 -2.83398 8.48438 -2.83398 11.9746c0 14.75 11.9707 26.7207 26.7207 26.7207c8.57324 0 18.9746 -6.0459 23.2178 -13.4961c11.6475 6.04883 20 10.2402 23.5674 12.0322c-2.38379 4.41211 -4.31934 12.0635 -4.31934 17.0791
c0 19.8271 16.0918 35.9199 35.9199 35.9199c19.7871 0 35.8789 -16.0596 35.9199 -35.8467v0c0 -19.8369 -16.0996 -35.9434 -35.9365 -35.9521z" />
    <glyph glyph-name="email" unicode="E" 
d="M306.096 182.08l184.433 92.1914c6.46094 3.25098 16.0801 9.80273 21.4717 14.625v-251.009c0 -22 -18 -40 -40 -40h-432c-22.0186 0.0615234 -39.9385 17.9814 -40 40v251.009c6.46387 -5.76074 13.6963 -10.7529 21.4717 -14.6406l184.433 -92.1758
c13.8877 -6.94434 31.6797 -10.7842 50.0957 -10.7842s36.208 3.83984 50.0957 10.7842zM35.7764 299.984c-19.6807 9.83984 -35.7764 32.2715 -35.7764 49.9033c0 17.6006 18 32 40 32h432c22 0 40 -14.3994 40 -32c0 -17.6318 -16.0957 -40.0635 -35.792 -49.9033
l-184.432 -92.2246c-9.84082 -4.91211 -22.8008 -7.37598 -35.7764 -7.37598s-25.9355 2.46387 -35.7764 7.37598z" />
    <glyph glyph-name="embl" unicode="&#x26;" 
d="M329.6 303.328v0.015625c0 11.667 9.46973 21.1367 21.1367 21.1367c11.6582 0 21.127 -9.46191 21.1357 -21.1201v-0.0166016c0 -11.667 -9.46875 -21.1357 -21.1357 -21.1357c-11.6582 0 -21.1279 9.46191 -21.1367 21.1201zM430.512 303.328
c-0.00390625 0.158203 -0.0078125 0.415039 -0.0078125 0.573242c0 11.6758 9.47656 21.1523 21.1523 21.1523s21.1523 -9.47656 21.1523 -21.1523c0 -0.162109 -0.00393677 -0.426758 -0.00881958 -0.588867c-0.316406 -11.3506 -9.78903 -20.5625 -21.1435 -20.5625
c-11.3633 0 -20.8359 9.21875 -21.1445 20.5781zM329.6 246.608c0 11.6621 9.46582 21.1279 21.1279 21.1279c11.6631 0 21.1289 -9.46582 21.1289 -21.1279c0 -11.6631 -9.46582 -21.1279 -21.1279 -21.1279c-11.6631 0 -21.1289 9.46486 -21.1289 21.1279z
M430.512 246.608c-0.00390625 0.158203 -0.0078125 0.415039 -0.0078125 0.573242c0 11.6758 9.47656 21.1523 21.1523 21.1523s21.1523 -9.47656 21.1523 -21.1523c0 -0.163086 -0.00393677 -0.426773 -0.00881958 -0.589859
c-0.316406 -11.3506 -9.78903 -20.5625 -21.1435 -20.5625c-11.3633 0 -20.8359 9.21976 -21.1445 20.5791zM329.6 189.888c0 11.6631 9.46582 21.1279 21.1279 21.1279c11.6631 0 21.1289 -9.46484 21.1289 -21.1279c0 -11.6621 -9.46582 -21.1279 -21.1279 -21.1279
c-11.6631 0 -21.1289 9.46582 -21.1289 21.1279zM430.512 189.888c-0.00390625 0.158203 -0.0078125 0.416016 -0.0078125 0.574219c0 11.6758 9.47656 21.1514 21.1523 21.1514s21.1523 -9.47559 21.1523 -21.1514
c0 -0.163086 -0.00393677 -0.426758 -0.00881958 -0.589844c-0.316406 -11.3506 -9.78903 -20.5625 -21.1435 -20.5625c-11.3633 0 -20.8359 9.21875 -21.1445 20.5781zM329.6 133.184c0.530273 11.1201 9.99609 20.1455 21.1279 20.1455
c11.1328 0 20.5986 -9.02539 21.1289 -20.1455c-0.530273 -11.1191 -9.99609 -20.1445 -21.1279 -20.1445c-11.1328 0 -20.5986 9.0254 -21.1289 20.1445zM430.512 133.184c0.00488281 11.6582 9.46973 21.1201 21.1279 21.1201
c11.6631 0 21.1279 -9.46484 21.1279 -21.1279v-0.0078125c-0.00390625 -11.6582 -9.46973 -21.1201 -21.1279 -21.1201c-11.6621 0 -21.1279 9.46582 -21.1279 21.1279v0.0078125zM329.6 76.4639v0.0166016c0 11.667 9.46973 21.1357 21.1367 21.1357
c11.6582 0 21.127 -9.46191 21.1357 -21.1201v-0.015625c0 -11.668 -9.46875 -21.1367 -21.1357 -21.1367c-11.6582 0 -21.1279 9.46191 -21.1367 21.1201zM430.512 76.4639c0.530273 11.1201 9.99609 20.1445 21.1279 20.1445c11.1328 0 20.5986 -9.02441 21.1279 -20.1445
c0 -11.6621 -9.46484 -21.1279 -21.1279 -21.1279c-11.6621 0 -21.1279 9.46582 -21.1279 21.1279zM26.9443 76.4639c0 11.667 9.46875 21.1357 21.1357 21.1357s21.1357 -9.46875 21.1357 -21.1357s-9.46875 -21.1357 -21.1357 -21.1357s-21.1357 9.46875 -21.1357 21.1357
zM228.72 416.768c-0.00390625 0.15918 -0.0078125 0.416016 -0.0078125 0.574219c0 11.6758 9.47655 21.1523 21.1523 21.1523s21.1523 -9.47656 21.1523 -21.1523c0 -0.163086 -0.00390625 -0.426758 -0.00878906 -0.589844
c-0.316406 -11.3506 -9.78906 -20.5625 -21.1436 -20.5625c-11.3633 0 -20.8359 9.21973 -21.1445 20.5781zM228.72 416.768c0.308594 -11.3584 9.78123 -20.5781 21.1445 -20.5781c11.3545 0 20.8271 9.21191 21.1436 20.5625
c0.00488281 0.163086 0.00878906 0.426758 0.00878906 0.589844c0 11.6758 -9.47656 21.1523 -21.1523 21.1523s-21.1523 -9.47656 -21.1523 -21.1523c0 -0.158203 0.00390625 -0.415039 0.0078125 -0.574219zM228.72 -36.9922
c0.00878906 11.6582 9.47752 21.1201 21.1367 21.1201c11.667 0 21.1357 -9.46875 21.1357 -21.1357v-0.0166016c-0.00878906 -11.6582 -9.47754 -21.1191 -21.1357 -21.1191c-11.668 0 -21.1367 9.46875 -21.1367 21.1357v0.015625zM228.72 -36.9922v-0.015625
c0 -11.667 9.46873 -21.1357 21.1367 -21.1357c11.6582 0 21.127 9.46094 21.1357 21.1191v0.0166016c0 11.667 -9.46875 21.1357 -21.1357 21.1357c-11.6592 0 -21.1279 -9.46191 -21.1367 -21.1201zM279.152 388.4c0.530273 11.1191 9.99512 20.1445 21.1279 20.1445
c11.1318 0 20.5977 -9.02539 21.1279 -20.1445c0 -11.6631 -9.46582 -21.1279 -21.1279 -21.1279c-11.6631 0 -21.1279 9.46484 -21.1279 21.1279zM178.304 388.4c0 11.667 9.46875 21.1357 21.1367 21.1357c11.667 0 21.1357 -9.46875 21.1357 -21.1357
c0 -11.668 -9.46875 -21.1367 -21.1357 -21.1367c-11.668 0 -21.1367 9.46875 -21.1367 21.1367zM279.152 -8.62402c0.00878906 11.6582 9.47754 21.1201 21.1357 21.1201c11.667 0 21.1357 -9.46875 21.1357 -21.1357v-0.0166016
c-0.00878906 -11.6582 -9.47754 -21.1201 -21.1357 -21.1201c-11.667 0 -21.1357 9.46973 -21.1357 21.1367v0.015625zM178.304 -8.62402c0 11.6582 9.46191 21.1201 21.1201 21.1201s21.1201 -9.46191 21.1201 -21.1201s-9.46191 -21.1201 -21.1201 -21.1201
s-21.1201 9.46192 -21.1201 21.1201zM228.72 360.048c-0.00390625 0.158203 -0.0078125 0.415039 -0.0078125 0.574219c0 11.6758 9.47655 21.1514 21.1523 21.1514s21.1523 -9.47559 21.1523 -21.1514c0 -0.163086 -0.00390625 -0.427734 -0.00878906 -0.589844
c-0.316406 -11.3506 -9.78906 -20.5625 -21.1436 -20.5625c-11.3633 0 -20.8359 9.21875 -21.1445 20.5781zM329.6 360.048c0 11.6631 9.46582 21.1279 21.1279 21.1279c11.6631 0 21.1289 -9.46484 21.1289 -21.1279
c-0.530273 -11.1201 -9.99609 -20.1445 -21.1279 -20.1445c-11.1328 0 -20.5986 9.02441 -21.1289 20.1445zM127.856 360.048v0.0166016c0 11.6582 9.46095 21.1191 21.1191 21.1191c11.6494 0 21.1113 -9.4541 21.1201 -21.1035v-0.015625
c0 -11.6582 -9.46191 -21.1201 -21.1201 -21.1201c-11.6494 0 -21.1104 9.4541 -21.1191 21.1035zM228.72 19.7119v0.015625c0 11.6768 9.47655 21.1523 21.1523 21.1523c11.667 0 21.1436 -9.46875 21.1523 -21.1357v-0.015625
c0 -11.6768 -9.47656 -21.1523 -21.1523 -21.1523c-11.667 0 -21.1435 9.46875 -21.1523 21.1357zM329.6 19.7119c0 11.6631 9.46582 21.1279 21.1279 21.1279c11.6631 0 21.1289 -9.46484 21.1289 -21.1279c-0.530273 -11.1201 -9.99609 -20.1445 -21.1279 -20.1445
c-11.1328 0 -20.5986 9.02441 -21.1289 20.1445zM127.856 19.7119c0 11.6582 9.46095 21.1201 21.1191 21.1201s21.1201 -9.46191 21.1201 -21.1201s-9.46191 -21.1201 -21.1201 -21.1201h-0.015625c-11.6494 0.00878906 -21.1035 9.4707 -21.1035 21.1201zM279.152 331.696
c0.00878906 11.6582 9.47754 21.1201 21.1357 21.1201c11.667 0 21.1357 -9.46973 21.1357 -21.1367v-0.015625c-0.00878906 -11.6582 -9.47754 -21.1201 -21.1357 -21.1201c-11.667 0 -21.1357 9.46875 -21.1357 21.1357v0.0166016zM380.048 331.696
c0.00878906 11.6582 9.47754 21.1201 21.1357 21.1201c11.668 0 21.1367 -9.46973 21.1367 -21.1367v-0.015625c-0.00878906 -11.6582 -9.47852 -21.1201 -21.1367 -21.1201c-11.667 0 -21.1357 9.46875 -21.1357 21.1357v0.0166016zM178.304 331.696
c0 11.6582 9.46191 21.1201 21.1201 21.1201s21.1201 -9.46191 21.1201 -21.1201s-9.46191 -21.1201 -21.1201 -21.1201s-21.1201 9.46191 -21.1201 21.1201zM77.376 331.696c0.3125 11.3545 9.78516 20.5703 21.1436 20.5703c11.3594 0 20.832 -9.21582 21.1445 -20.5703
c-0.3125 -11.3555 -9.78516 -20.5703 -21.1445 -20.5703c-11.3584 0 -20.8311 9.21484 -21.1436 20.5703zM279.152 274.992c0.00878906 11.6582 9.47754 21.1201 21.1357 21.1201c11.667 0 21.1357 -9.46973 21.1357 -21.1367v-0.015625
c-0.00878906 -11.6582 -9.47754 -21.1201 -21.1357 -21.1201c-11.667 0 -21.1357 9.46875 -21.1357 21.1357v0.0166016zM380.048 274.992c0.00878906 11.6582 9.47754 21.1201 21.1357 21.1201c11.668 0 21.1367 -9.46973 21.1367 -21.1367v-0.015625
c-0.00878906 -11.6582 -9.47852 -21.1201 -21.1367 -21.1201c-11.667 0 -21.1357 9.46875 -21.1357 21.1357v0.0166016zM178.304 274.992c0 11.6582 9.46191 21.1201 21.1201 21.1201s21.1201 -9.46191 21.1201 -21.1201s-9.46191 -21.1201 -21.1201 -21.1201
s-21.1201 9.46193 -21.1201 21.1201zM77.376 274.992c0.3125 11.3545 9.78516 20.5703 21.1436 20.5703c11.3594 0 20.832 -9.21582 21.1445 -20.5703c-0.530273 -11.1289 -10.0029 -20.1602 -21.1445 -20.1602c-11.1406 0 -20.6133 9.03125 -21.1436 20.1602z
M279.152 218.256c-0.00488281 0.158203 -0.0078125 0.415039 -0.0078125 0.574219c0 11.6758 9.47559 21.1514 21.1514 21.1514s21.1523 -9.47557 21.1523 -21.1514c0 -0.163086 -0.00390625 -0.427734 -0.0078125 -0.589844
c-0.317383 -11.3506 -9.78906 -20.5625 -21.1445 -20.5625c-11.3633 0 -20.8359 9.21875 -21.1436 20.5781zM380.048 218.256c-0.00390625 0.158203 -0.0078125 0.415039 -0.0078125 0.574219c0 11.6758 9.47656 21.1514 21.1523 21.1514s21.1514 -9.47557 21.1514 -21.1514
c0 -0.163086 -0.00292969 -0.427734 -0.0078125 -0.589844c-0.316406 -11.3506 -9.78906 -20.5625 -21.1436 -20.5625c-11.3633 0 -20.8359 9.21875 -21.1445 20.5781zM178.304 218.256c0 11.667 9.46875 21.1357 21.1367 21.1357
c11.667 0 21.1357 -9.46875 21.1357 -21.1357s-9.46875 -21.1357 -21.1357 -21.1357c-11.668 0 -21.1367 9.46875 -21.1367 21.1357zM77.376 218.256c0 11.6758 9.47656 21.1523 21.1523 21.1523s21.1514 -9.47655 21.1514 -21.1523s-9.47558 -21.1514 -21.1514 -21.1514
s-21.1523 9.47559 -21.1523 21.1514zM279.152 161.552c0 11.6582 9.46094 21.1201 21.1201 21.1201c11.6582 0 21.1191 -9.46191 21.1191 -21.1201s-9.46094 -21.1201 -21.1191 -21.1201c-11.6592 0 -21.1201 9.46191 -21.1201 21.1201zM380.048 161.552
c0 11.667 9.46875 21.1357 21.1357 21.1357c11.668 0 21.1367 -9.46875 21.1367 -21.1357s-9.46875 -21.1357 -21.1367 -21.1357c-11.6582 0.00878906 -21.127 9.47754 -21.1357 21.1357zM178.304 161.552c0 11.6631 9.46582 21.1279 21.1279 21.1279
c11.6631 0 21.1279 -9.46484 21.1279 -21.1279c-0.529297 -11.1191 -9.99512 -20.1445 -21.1279 -20.1445c-11.1318 0 -20.5977 9.02539 -21.1279 20.1445zM77.376 161.552c-0.00390625 0.154297 -0.00683594 0.40332 -0.00683594 0.557617
c0 11.6758 9.47559 21.1514 21.1514 21.1514s21.1523 -9.47559 21.1523 -21.1514c0 -0.166992 -0.00390625 -0.438477 -0.00878906 -0.605469c-0.324219 -11.3418 -9.79688 -20.5469 -21.1436 -20.5469c-11.3721 0 -20.8447 9.22656 -21.1445 20.5947zM279.152 104.848
c0.00878906 11.6494 9.4707 21.1045 21.1201 21.1045c11.6582 0 21.1191 -9.46191 21.1191 -21.1201v-0.015625c-0.00878906 -11.6494 -9.46973 -21.1045 -21.1191 -21.1045c-11.6592 0 -21.1201 9.46191 -21.1201 21.1201v0.015625zM380.048 104.848
c0.0175781 11.6406 9.47949 21.0879 21.1201 21.0879c11.6582 0 21.1201 -9.46094 21.1201 -21.1191c0 -11.6494 -9.45508 -21.1113 -21.1045 -21.1201c-11.667 0.00878906 -21.1357 9.48438 -21.1357 21.1514zM178.304 104.848
c0.0175781 11.6406 9.47949 21.0879 21.1201 21.0879c11.6582 0 21.1201 -9.46094 21.1201 -21.1191s-9.46191 -21.1201 -21.1201 -21.1201c-11.6641 0 -21.1201 9.47168 -21.1201 21.1514zM77.376 104.848c-0.00390625 0.149414 -0.00683594 0.391602 -0.00683594 0.541016
c0 11.6758 9.47559 21.1514 21.1523 21.1514c11.6758 0 21.1514 -9.47558 21.1514 -21.1514c0 -0.171875 -0.00390625 -0.449219 -0.00878906 -0.621094c-0.333008 -11.333 -9.80469 -20.5312 -21.1426 -20.5312c-11.3818 0 -20.8545 9.23438 -21.1455 20.6113z
M279.152 48.1279c0.00878906 11.6494 9.4707 21.1045 21.1201 21.1045c11.6582 0 21.1191 -9.46191 21.1191 -21.1201v-0.0166016c-0.00878906 -11.6494 -9.46973 -21.1035 -21.1191 -21.1035c-11.6592 0 -21.1201 9.46191 -21.1201 21.1201v0.015625zM380.048 48.1279
c0.0263672 11.6318 9.48828 21.0723 21.1201 21.0723c11.6582 0 21.1201 -9.46191 21.1201 -21.1201c0 -11.6494 -9.45508 -21.1113 -21.1045 -21.1201c-11.667 0.0175781 -21.1357 9.50098 -21.1357 21.168zM178.304 48.1279
c0.0263672 11.6318 9.48828 21.0723 21.1201 21.0723c11.6582 0 21.1201 -9.46191 21.1201 -21.1201s-9.46191 -21.1201 -21.1201 -21.1201c-11.6641 0 -21.1201 9.48828 -21.1201 21.168zM77.376 48.1279c-0.00390625 0.149414 -0.00683594 0.391602 -0.00683594 0.540039
c0 11.6758 9.47559 21.1523 21.1523 21.1523c11.6758 0 21.1514 -9.47656 21.1514 -21.1523c0 -0.170898 -0.00390625 -0.449219 -0.00878906 -0.620117c-0.333008 -11.333 -9.80469 -20.5312 -21.1426 -20.5312c-11.3818 0 -20.8545 9.2334 -21.1455 20.6113z
M228.72 303.344c0.00878906 11.6582 9.47752 21.1201 21.1367 21.1201c11.667 0 21.1357 -9.46875 21.1357 -21.1357v-0.015625c-0.00878906 -11.6592 -9.47754 -21.1201 -21.1357 -21.1201c-11.668 0 -21.1367 9.46875 -21.1367 21.1357v0.015625zM127.856 303.328
v0.015625c0 11.6582 9.46095 21.1201 21.1191 21.1201c11.6494 0 21.1113 -9.4541 21.1201 -21.1035v-0.0166016c0 -11.6582 -9.46191 -21.1201 -21.1201 -21.1201c-11.6494 0 -21.1104 9.45508 -21.1191 21.1045zM26.9443 303.328
c0 11.667 9.46875 21.1357 21.1357 21.1357s21.1357 -9.46875 21.1357 -21.1357s-9.46875 -21.1357 -21.1357 -21.1357s-21.1357 9.46875 -21.1357 21.1357zM228.72 246.608c-0.00390625 0.158203 -0.0078125 0.415039 -0.0078125 0.573242
c0 11.6758 9.47655 21.1523 21.1523 21.1523s21.1523 -9.47656 21.1523 -21.1523c0 -0.163086 -0.00390625 -0.426773 -0.00878906 -0.589859c-0.316406 -11.3506 -9.78906 -20.5625 -21.1436 -20.5625c-11.3633 0 -20.8359 9.21976 -21.1445 20.5791zM127.856 246.608
v0.015625c0 11.6582 9.46095 21.1201 21.1191 21.1201c11.6494 0 21.1113 -9.45508 21.1201 -21.1045v-0.0156097c0 -11.6582 -9.46094 -21.1201 -21.1201 -21.1201c-11.6494 0 -21.1104 9.45509 -21.1191 21.1045zM26.9443 246.608
c0 11.667 9.46875 21.1357 21.1357 21.1357s21.1357 -9.46875 21.1357 -21.1357c0 -11.667 -9.46875 -21.1367 -21.1357 -21.1367s-21.1357 9.46976 -21.1357 21.1367zM228.72 189.888c-0.00390625 0.158203 -0.0078125 0.416016 -0.0078125 0.574219
c0 11.6758 9.47655 21.1514 21.1523 21.1514s21.1523 -9.47559 21.1523 -21.1514c0 -0.163086 -0.00390625 -0.426758 -0.00878906 -0.589844c-0.316406 -11.3506 -9.78906 -20.5625 -21.1436 -20.5625c-11.3633 0 -20.8359 9.21875 -21.1445 20.5781zM127.856 189.888
v0.0166016c0 11.6582 9.46095 21.1201 21.1191 21.1201c11.6494 0 21.1113 -9.45508 21.1201 -21.1045v-0.015625c0 -11.6582 -9.46094 -21.1201 -21.1191 -21.1201c-11.6504 0 -21.1113 9.4541 -21.1201 21.1035zM26.9443 189.888
c0 11.667 9.46875 21.1367 21.1357 21.1367s21.1357 -9.46973 21.1357 -21.1367s-9.46875 -21.1357 -21.1357 -21.1357s-21.1357 9.46875 -21.1357 21.1357zM228.72 133.184c0.00878906 11.6582 9.4785 21.1201 21.1367 21.1201c11.667 0 21.1357 -9.46875 21.1357 -21.1357
v-0.015625c-0.00878906 -11.6582 -9.47754 -21.1201 -21.1357 -21.1201c-11.667 0 -21.1367 9.46875 -21.1367 21.1357v0.015625zM127.856 133.184c0.530281 11.1201 9.99512 20.1455 21.1279 20.1455c11.1318 0 20.5977 -9.02539 21.1279 -20.1455
c-0.530273 -11.1191 -9.99609 -20.1445 -21.1279 -20.1445c-11.1328 0 -20.5977 9.0254 -21.1279 20.1445zM26.9443 133.184c0 11.6582 9.46191 21.1201 21.1201 21.1201s21.1191 -9.46191 21.1191 -21.1201s-9.46094 -21.1191 -21.1191 -21.1191
s-21.1201 9.46094 -21.1201 21.1191zM228.72 76.4639c-0.00390625 0.158203 -0.0078125 0.415039 -0.0078125 0.574219c0 11.6758 9.47655 21.1514 21.1523 21.1514s21.1523 -9.47559 21.1523 -21.1514c0 -0.163086 -0.00390625 -0.427734 -0.00878906 -0.589844
c-0.316406 -11.3506 -9.78906 -20.5625 -21.1436 -20.5625c-11.3633 0 -20.8359 9.21875 -21.1445 20.5781zM127.856 76.4639v0.0166016c0 11.6582 9.46095 21.1191 21.1191 21.1191c11.6494 0 21.1113 -9.4541 21.1201 -21.1035v-0.015625
c0 -11.6582 -9.46094 -21.1201 -21.1191 -21.1201c-11.6504 0 -21.1113 9.4541 -21.1201 21.1035z" />
    <glyph glyph-name="external-link" unicode="x" 
d="M286.304 347.28l-62.3682 -62.3525h-161.584v-288.688h288.736v163.04l62.3359 62.3516v-256.576c0 -17.2041 -13.9629 -31.168 -31.168 -31.168v0h-351.072c-17.2314 0 -31.1836 13.9521 -31.1836 31.1846v351.04c0 17.2041 13.9629 31.168 31.168 31.168h0.0156269
h255.12zM512 289.376c-0.015625 -4.01562 -2.30374 -4.92773 -5.13577 -2.1123l-45.5683 45.584l-237.264 -237.248c-1.52734 -1.5332 -4.52344 -2.77734 -6.68848 -2.77734c-2.16406 0 -5.16016 1.24414 -6.6875 2.77734l-49.3281 49.3281
c-1.5332 1.52734 -2.77832 4.52441 -2.77832 6.68848s1.24512 5.16016 2.77832 6.6875l237.231 237.248l-45.5674 45.5684c-2.83203 2.81543 -1.85645 5.13574 2.11133 5.13574h149.664v0c3.99219 0 7.23239 -3.24023 7.23239 -7.23145v-0.0166016v-149.632z" />
    <glyph glyph-name="external-systems" unicode="y" 
d="M256 445.888c141.152 0 256 -114.863 256 -256c0 -141.151 -114.832 -256 -256 -256s-256 114.864 -256 256c0 141.137 114.832 256 256 256zM474.336 189.888c0 96.1279 -62.5117 177.889 -149.008 206.944c-5.32812 -6.49609 -9.32812 -12.752 -8.92773 -16.8799
c5.83984 -58.4639 45.6641 -14.6084 53.3916 -23.168c27.5361 -30.5605 -51.7441 -41.1357 -24.1924 -96.2725c13.2969 -26.4961 28.624 -33.8877 50.96 -34.2236c22.3848 -0.368164 30.624 -38.5439 32.3848 -54.4004
c1.85547 -15.8555 -0.272461 -56.5752 -8.33594 -74.1914c-8 -17.4883 0.511719 -34.3359 8.51172 -40.6406c28.2715 36.832 45.2158 82.8965 45.2158 132.832zM226 406.048c-79.6162 -10.9922 -145.664 -65.0879 -173.712 -137.888
c16.0635 -1.64844 54.6074 -2.14453 59.4395 -15.7285c4.95996 -13.6641 -16.9912 -27.8398 -16.9912 -56.3672c0 -31.6006 40.4473 -31.2324 40.4473 -55.0088c0 -23.7754 8.76855 -51.5674 8.76855 -59.4717c0 -7.93555 33.7754 -51.6162 46.3359 -51.6162
c12.4795 0 2.65625 48.8486 3.32812 61.792c0.383789 8.38379 6 34.0322 7.61621 40.0166c10.832 40.9277 51.4873 36.752 60.7676 61.4395c29.2803 77.6641 -62.6084 82.0801 -75.1045 86.4961c-12.4951 4.38379 -33.7275 4.52832 -41.7754 1.8877
c-8.04785 -2.63965 -24.1758 10.9121 -24.1758 22.3359c0 11.4561 31.8877 34.2881 41.7754 50.1123c9.83984 15.8398 17.6641 13.5518 35.9043 30.0479c8.36816 7.64844 22.1602 11.792 27.376 21.9521zM187.328 -17.3125
c21.6162 -7.18359 44.6719 -11.1357 68.6562 -11.1357h0.195312c36.208 0 90.0596 16.2783 120.204 36.3359c-9.63184 17.4238 -45.2959 19.8564 -63.3438 18.3838c-21.4238 -1.77539 -45.7598 -15.584 -59.376 -18.5596c-15.3281 -3.34375 -26.3838 -8.06348 -40 -8.6875
c-11.9043 -0.480469 -13.2324 -9.4082 -26.3359 -16.3369z" />
    <glyph glyph-name="face-to-face" unicode="f" 
d="M496.704 52.0645c12.5117 -11.9365 22.9756 -39.1523 7.69626 -54.8164c-15.3281 -15.6484 -56.8809 -31.2959 -133.473 -31.2959c-40.8955 0 -71.6953 4.47949 -93.9678 11.0234c2.94531 2.02441 7.375 5.73047 9.8877 8.27246
c8.40039 8.5918 12.7363 19.9355 12.5127 32.7842c-0.288086 16.5439 -8.36816 34.7842 -20.6084 46.4482c-1.36035 1.30566 -3.53223 3.46289 -4.84766 4.81543c-0.836914 0.845703 -2.20605 2.20801 -3.05664 3.04004c5.68066 2.54395 13.0566 5.02441 23.3926 7.66406
c8.60742 2.17578 28.4316 8.7041 30.7354 19.7119c-0.319336 37.8721 -15.3115 38.4482 -22.96 54.1123c-7.66406 15.6162 -20.8633 54.3037 -7.66406 117.392c9.71289 46.5283 74.1602 46.96 76.5127 46.96h0.143555c2.35254 0 66.7998 -0.431641 76.5127 -46.96
c13.1992 -63.0879 0 -101.76 -7.66406 -117.392c-7.68066 -15.6641 -22.6729 -16.2402 -22.9922 -54.1123c2.31934 -10.9922 22.1436 -17.5195 30.7676 -19.7119c33.5205 -8.54395 36.0166 -15.4561 49.0723 -27.9355zM217.792 80
c33.5361 -8.54395 36.0322 -15.4561 49.1045 -27.9199c12.5273 -11.9365 22.9756 -39.1523 7.66309 -54.8164c-15.3115 -15.6641 -56.8633 -31.2959 -133.472 -31.2959c-76.5762 0 -118.128 15.6318 -133.439 31.2959c-15.3281 15.6807 -4.84863 42.8799 7.64746 54.8164
c13.0557 12.4795 15.5684 19.3916 49.1045 27.9355c8.62402 2.17676 28.4316 8.7041 30.7354 19.7119c-0.319336 37.8721 -15.3115 38.4482 -22.96 54.1123c-7.66406 15.6162 -20.8643 54.3037 -7.66406 117.393c9.71191 46.5273 74.1602 46.96 76.5127 46.96h0.12793
c2.36719 0 66.7998 -0.448242 76.5273 -46.9766c13.2002 -63.0879 0 -101.76 -7.66406 -117.392c-7.67969 -15.6641 -22.6719 -16.2402 -22.9912 -54.1123c2.31934 -10.9922 22.1436 -17.5195 30.7676 -19.7119z" />
    <glyph glyph-name="find-us" unicode="]" 
d="M224.576 413.088c5.43945 0 9.91992 -4.46387 9.91992 -9.91992v-426.528c0 -5.47168 -4.48047 -9.91992 -9.91992 -9.91992h-22.3359c-5.4668 0.00878906 -9.91113 4.45312 -9.91992 9.91992v218.24h-87.6807c-4.0957 0 -9.18359 0.927734 -14.0635 2.43262
c-3.80078 1.10742 -9.59277 3.73828 -12.9277 5.87109l-58.8965 40.416c-3.32812 2.28809 -4.99219 5.29689 -4.99219 8.3047s1.66406 6.03125 4.99219 8.30371l58.8965 40.4316c3.32715 2.27246 8.03125 4.35254 12.9277 5.85645
c4.87988 1.48828 9.96777 2.43164 14.0635 2.43164h87.6807v94.2402c0 5.45605 4.46387 9.91992 9.91992 9.91992h22.3359zM504.784 309.792c3.32812 -2.28809 4.99222 -5.28027 4.99222 -8.30371c0 -3.02441 -1.66409 -6.0166 -4.99222 -8.30469l-58.8965 -40.4316
c-3.33398 -2.13574 -9.12598 -4.7666 -12.9277 -5.87207c-3.78711 -1.2168 -10.0879 -2.30666 -14.0635 -2.43166h-149.664l-19.8564 114.08h169.521c4.0957 0 9.15137 -0.928711 14.0635 -2.43262c4.89648 -1.51953 9.58398 -3.58398 12.9277 -5.87207z" />
    <glyph glyph-name="funding" unicode="F" 
d="M447.488 60.6562c9.8877 0 19.3281 -4.208 25.9199 -11.5361c6.25586 -6.89648 9.43945 -15.8564 8.97559 -25.168c-0.386719 -7.99609 -5.54102 -18.8193 -11.5039 -24.1602c-40.2695 -36.3711 -116.993 -65.8896 -171.256 -65.8896
c-21.9482 0 -56.7305 5.41211 -77.6396 12.082v-0.144531c-0.671875 0.208008 -1.3125 0.480469 -1.98438 0.704102c-2.92773 0.959961 -5.77637 2.08008 -8.63965 3.13574c-3.47266 1.26465 -6.94434 2.49609 -10.3203 3.9043
c-2.7041 1.15234 -5.31152 2.41602 -7.96777 3.64844c-3.45605 1.56738 -6.91211 3.13574 -10.2725 4.84766c-2.43164 1.24805 -4.76758 2.63965 -7.15137 3.96777c-3.47266 1.91992 -6.92871 3.80762 -10.2881 5.87207c-2.14453 1.3125 -4.19238 2.76758 -6.28809 4.16016
c-3.47266 2.27148 -6.94434 4.54395 -10.2881 6.97559c-1.82422 1.34473 -3.56836 2.81641 -5.36035 4.19238c-3.47168 2.67188 -6.92773 5.32812 -10.2559 8.17578c-1.51953 1.3125 -2.94434 2.71973 -4.43164 4.04785c-2.87109 2.54297 -7.42285 6.78613 -10.1602 9.47266
c-1.2002 1.19922 -2.33594 2.49512 -3.52051 3.74316c-2.84863 2.91211 -7.3291 7.77148 -10 10.8486c-0.927734 1.05566 -1.75977 2.22363 -2.67188 3.2959c-2.77246 3.31543 -7.11621 8.82031 -9.69531 12.2881c-0.672852 0.943359 -1.26465 1.8877 -1.9209 2.83203
c-3.19922 4.46387 -6.30371 8.99219 -9.21582 13.6953c-0.447266 0.736328 -0.847656 1.5205 -1.2959 2.25683c-2.49316 4.08984 -6.31348 10.8564 -8.52734 15.1035c-0.288086 0.576172 -0.52832 1.18457 -0.832031 1.74414
c-2.27734 4.45312 -5.7041 11.8076 -7.64844 16.416l-0.49609 1.2959c-1.2959 3.13574 -2.38379 6.36816 -3.56836 9.53613h-30.1914c-18.8916 0 -34.2246 15.332 -34.2246 34.2236s15.333 34.2246 34.2246 34.2246h15.168
c-0.261719 3.80664 -0.512695 9.99219 -0.560547 13.8076l0.0166016 -4.28809c-0.12793 3.2959 -0.255859 6.5918 -0.255859 9.91992c0 2.54395 0.111328 5.05664 0.191406 7.56836v-2.68848c0.0966797 4.86426 0.208008 9.74414 0.576172 14.5762h-15.1357
c-18.3232 0.560547 -33.1934 15.8926 -33.1934 34.2246c0 18.3311 14.8701 33.6631 33.1934 34.2236h30.1758c1.04004 2.84766 1.95215 5.72754 3.08789 8.52832l0.0478516 0.111328c9.33691 22.9668 30.3965 56.541 47.0078 74.9443
c0.78418 0.879883 1.71289 1.56836 2.57617 2.35156c46.7842 50.4482 113.456 82.1602 187.504 82.1602c63.5049 0 124.4 -23.4072 171.505 -65.9033c6.92773 -6.25684 11.0235 -14.832 11.4873 -24.1445c0.463867 -9.31152 -2.71973 -18.2559 -8.97559 -25.1836
c-5.74609 -6.35449 -17.3633 -11.5117 -25.9297 -11.5117c-7.41699 0 -17.9072 4.03223 -23.4141 8.99902c-29.2705 26.4434 -85.0391 47.9043 -124.485 47.9043h-0.1875c-70.8154 0 -132.352 -39.8721 -163.792 -98.2402h271.44
c18.8916 0 34.2236 -15.332 34.2236 -34.2236c0 -18.8916 -15.332 -34.2236 -34.2236 -34.2236h-292.752c-0.65625 -6.16016 -1.00781 -12.3682 -1.02441 -18.624c0.0478516 2.25586 0.240227 4.47949 0.33593 6.73535l0.127937 -17.4873
c-0.12793 2.5918 -0.319336 5.15137 -0.416016 7.74316c0.0644531 -5.82324 0.384766 -11.5996 0.992188 -17.2793h292.736c18.8916 0 34.2236 -15.333 34.2236 -34.2246s-15.332 -34.2236 -34.2236 -34.2236h-271.184c8.99219 -16.7949 27.9521 -40.5781 42.3193 -53.0879
c10.9893 -9.4502 30.5938 -22.0371 43.7598 -28.0957v-0.0966797c20.2861 -9.37012 54.8848 -16.9756 77.2305 -16.9756h0.225586c46.1768 0 90.4482 17.0078 124.688 47.9199c5.49121 4.96387 15.9551 8.99218 23.3574 8.99218h0.0507812z" />
    <glyph glyph-name="graph" unicode="g" 
d="M288.032 53.9199c-8.83203 0 -16 7.16797 -16 16v127.984c0 8.83203 7.16797 16 16 16h64c8.83203 0 16 -7.16797 16 -16v-127.984c0 -8.83203 -7.16797 -16 -16 -16h-64zM416.064 53.9199c-8.83203 0 -16 7.16797 -16 16v320c0 8.83203 7.16797 16 16 16h64
c8.83203 0 16 -7.16797 16 -16v-320c0 -8.83203 -7.16794 -16 -16 -16h-64zM160 53.9199c-8.83203 0 -16 7.16797 -16 16v224c0 8.83203 7.16797 16 16 16h64c8.83203 0 16 -7.16797 16 -16v-224c0 -8.83203 -7.16798 -16 -16 -16h-64zM31.9844 53.9199
c-8.83203 0 -16 7.16797 -16 16v96c0 8.83203 7.16797 16 16 16h64c8.83203 0 16 -7.16797 16 -16v-96c0 -8.83203 -7.16797 -16 -16 -16h-64zM0 37.9199h512v-64h-512v64z" />
    <glyph glyph-name="group" unicode="}" 
d="M168.064 155.2l0.015625 -0.0166016c-27.5518 -6.60742 -51.3281 -12.3838 -63.3438 -23.8555c-8.78418 -8.38379 -15.0088 -20.6396 -17.0088 -32.7363c-0.15918 0 -0.303711 -16.9277 -0.431641 -16.9277c-37.8877 2.86426 -70.7998 10.8164 -78.6396 18.8164
c-9.74414 9.91992 -3.10449 44.1758 4.86328 51.7598c7.10449 6.76758 25.6328 10.9756 44.1924 15.4561l1.34375 0.319336l1.69628 0.416016c2 0.52832 4 1.00879 5.96778 1.48828c0.0732422 0.015625 0.1875 0.0517578 0.255859 0.0800781
c5.45605 1.4082 18.0801 5.55176 19.5361 12.5596c-0.143555 16.3047 -4.57617 21.7285 -8.91211 26.624c-2.08008 2.35254 -4.12793 4.57617 -5.69531 7.77637c-4.86426 9.95215 -13.248 34.5117 -4.86426 74.6084c3.93555 18.8154 21.9521 25.792 34.9277 28.3359
c7.79199 1.55176 13.7441 1.51953 13.7441 1.51953h0.383789s42.3525 0.288086 48.6719 -29.8555c8.38477 -40.0967 0 -64.6719 -4.87988 -74.6084c-4.86328 -9.95215 -14.3838 -10.3037 -14.5918 -34.3838c1.47168 -7.00781 14.0479 -11.1523 19.5518 -12.5605
c2.08008 -0.527344 4.19238 -1.02344 6.30469 -1.56738c0.946289 -0.213867 2.48047 -0.572266 3.42383 -0.799805c6.81543 -1.66406 13.6162 -3.26465 19.8242 -4.97656c-2.62402 -1.2002 -5.93652 -2.36816 -9.82422 -3.3916l-0.112305 -0.0322266l-0.591797 -0.144531
c-2.68848 -0.703125 -5.37598 -1.35938 -8.06445 -2l-2.27148 -0.591797l-0.912109 -0.191406l-0.896484 -0.240234zM410.24 98.5596l-0.0166016 0.000976562c1.79199 -8.75293 0.688477 -51.7285 -5.85547 -58.416c-10.6885 -10.9121 -55.7598 -21.8242 -107.568 -25.6963
c-0.416016 -0.0322266 -0.832031 -0.0322266 -1.24805 -0.0800781c-5.96777 -0.448242 -12.0479 -0.832031 -18.1436 -1.02441c-0.255859 -0.03125 -0.512695 -0.03125 -0.751953 -0.03125c-6.22461 -0.256836 -12.4639 -0.400391 -18.752 -0.400391h-0.52832
c-6.27246 0 -12.5283 0.143555 -18.752 0.400391h-0.383774c-0.144531 0 -0.255844 0 -0.38475 0.03125h-0.0156555c-6.08008 0.224609 -12.1123 0.592773 -18.0801 1.02441c-0.448242 0.0478516 -0.864258 0.0478516 -1.2959 0.0800781
c-51.8076 3.8877 -96.8799 14.7842 -107.584 25.6963c-11.4404 11.6953 -6.28808 64.6719 2.25587 76.4316c0.12793 0.143555 0.240227 0.383797 0.383781 0.559578c1.00977 1.34961 2.80176 3.40723 4 4.59277c9.72852 9.24805 35.0889 14.9912 60.4805 21.1191
l1.85547 0.464844c0.768555 0.15918 1.52051 0.351562 2.30469 0.543945c2.73535 0.6875 5.47168 1.37598 8.19141 2.03125l0.335938 0.0800781c1.22168 0.353516 3.2002 0.941406 4.41602 1.3125c0.464844 0.12793 0.896484 0.288086 1.37598 0.463867
c0.78418 0.223633 1.60059 0.543945 2.43262 0.832031c3.79492 1.30664 9.50098 4.2959 12.7354 6.67188l0.128906 0.112305c0.701172 0.552734 1.76855 1.52734 2.38379 2.17578c1.33984 1.29492 2.80273 3.81055 3.26367 5.61621
c-0.191406 22.3193 -6.24023 29.7441 -12.1758 36.4316c-2.83203 3.18457 -5.64844 6.22363 -7.79199 10.6084c-6.65625 13.6318 -18.1445 47.248 -6.65625 102.128c5.4082 25.7598 30.0644 35.2793 47.8086 38.7842c10.6396 2.11133 18.7832 2.04785 18.7832 2.04785
h0.52832s57.9521 0.383789 66.5918 -40.832c11.4561 -54.8799 0 -88.4961 -6.6875 -102.112c-6.62402 -13.584 -19.6963 -14.0801 -19.9678 -47.0244c0.463867 -1.80371 1.92578 -4.31934 3.26367 -5.61523c0.611328 -0.651367 1.67969 -1.62695 2.38379 -2.17578
l0.12793 -0.0966797c3.23047 -2.35742 8.91504 -5.34668 12.6885 -6.67188c0.863281 -0.320312 1.67969 -0.639648 2.49609 -0.879883c0.362305 -0.135742 0.957031 -0.335938 1.32715 -0.448242c0.560547 -0.208008 1.16797 -0.368164 1.72852 -0.52832
c0.975586 -0.303711 1.91992 -0.55957 2.6875 -0.783203c2.89648 -0.688477 5.76074 -1.42383 8.65625 -2.12793c0.572266 -0.146484 1.50391 -0.369141 2.08008 -0.496094l2.6084 -0.640625c25.1836 -6.0957 50.208 -11.8076 59.8232 -20.9756
c1.20508 -1.17773 3.01074 -3.2207 4.03223 -4.56055c0.175781 -0.239258 0.288086 -0.527344 0.463867 -0.719727c0.933594 -1.31055 2.3457 -3.50391 3.15234 -4.89551c0 0 0 -0.0322266 0.0322266 -0.0322266c1.86621 -3.38281 4.03027 -9.19629 4.83203 -12.9766z
M498.096 152.256l-0.0155945 -0.0322266c7.95215 -7.58398 14.6084 -41.8555 4.87988 -51.7598c-7.83984 -8.01562 -40.7842 -15.9678 -78.6396 -18.8154c-0.112305 0 -0.272461 16.9277 -0.432617 16.9277c-1.95215 12.1123 -8.19141 24.3682 -16.96 32.7363
c-12.0479 11.4717 -35.8555 17.2158 -63.3916 23.8555l-3.00781 0.704102l-1.13672 0.272461l-1.58398 0.367188l-1.61523 0.416016l-8.87988 2.17676c-4.03223 1.04004 -7.4082 2.27148 -10.0967 3.4873c6.35254 1.75977 13.3125 3.39258 20.2881 5.07227l1.32812 0.320312
l1.67969 0.416016c2 0.527344 4.0166 1.00781 6 1.4873l0.240234 0.0800781c5.48828 1.4082 18.0801 5.55273 19.5684 12.5605c-0.144531 16.3037 -4.56055 21.7275 -8.92871 26.624c-2.04785 2.35156 -4.12793 4.55957 -5.66406 7.77539
c-4.91113 9.95215 -13.2637 34.5127 -4.91113 74.6084c3.96777 18.8154 22 25.792 34.9434 28.3359c7.80859 1.55176 13.7598 1.51953 13.7598 1.51953h0.400391s42.3359 0.288086 48.6562 -29.8555c8.39941 -40.0957 -0.0166016 -64.6562 -4.86426 -74.6084
s-14.3838 -10.3037 -14.5762 -34.3838c1.44043 -7.00781 14.0322 -11.1523 19.5205 -12.5596c2.08008 -0.52832 4.19138 -1.02441 6.27145 -1.56836l1.55273 -0.335938c0.515625 -0.148438 1.36133 -0.356445 1.8877 -0.463867
c18.3838 -4.43262 36.7041 -8.63965 43.7275 -15.3604z" />
    <glyph glyph-name="gtls" unicode="G" 
d="M397.968 -30.8965c-13.8398 -14.1592 -72.1602 -28.207 -139.184 -33.2471l-1.64844 -0.0966797c-7.72754 -0.55957 -15.5361 -1.02344 -23.4238 -1.34375l-0.959961 -0.0322266c-8.06445 -0.271484 -16.1602 -0.496094 -24.2881 -0.496094h-0.671875
c-8.12793 0 -16.2236 0.224609 -24.3203 0.496094c-0.160156 0 -0.319336 0 -0.479492 0.0322266h-0.496094c-7.87207 0.320312 -15.6797 0.78418 -23.3926 1.34375l-1.66309 0.0966797c-67.04 5.02344 -125.345 19.0879 -139.185 33.2471
c-17.2158 17.6006 -5.45605 48.1924 8.6084 61.6641c12.5762 11.9687 45.4082 19.4404 78.2559 27.376l2.39941 0.560547c0.818359 0.210938 2.15234 0.534176 2.97656 0.719723c3.55176 0.879883 7.08789 1.74414 10.5918 2.65625l0.431633 0.0957069
c9.68067 2.48047 32 9.85645 34.5928 22.2246c-0.255859 28.832 -8.06445 38.4316 -15.7607 47.0879c-3.66406 4.11133 -7.31152 8.06348 -10.0791 13.7441c-8.64062 17.5996 -23.4727 61.0879 -8.64062 132.096c6.99219 33.3438 38.8965 45.6318 61.8564 50.1758
c13.7598 2.71973 24.3037 2.65625 24.3037 2.65625h0.671875s74.96 0.511719 86.1279 -52.8164c14.8486 -71.0078 0 -114.496 -8.62402 -132.096c-8.5918 -17.6318 -25.4717 -18.2236 -25.8555 -60.8477c2.60742 -12.3848 24.9277 -19.7607 34.5918 -22.2246
c3.67969 -0.943359 7.42383 -1.83984 11.1523 -2.78418l2.6875 -0.655273c1.13574 -0.255859 2.27246 -0.52832 3.3916 -0.816406c32.5928 -7.83984 64.9609 -15.2803 77.4248 -27.1523c14.0801 -13.4717 25.8232 -44.0635 8.60742 -61.6641zM397.904 445.888
c63.0234 0 114.096 -38.5752 114.096 -86.1113c0 -47.5684 -51.0723 -86.1445 -114.096 -86.1445l-1.82422 0.0322266c-13.8076 -20.7363 -36.0957 -42.1123 -51.9043 -48.7676c10.2246 12.8154 15.9521 27.0234 15.9521 42.0156
c0 3.18359 -0.81543 8.32031 -1.45605 11.9355c-43.6797 12.0645 -74.8643 43.7441 -74.8643 80.9121c0 47.5527 51.0889 86.1279 114.097 86.1279z" />
    <glyph glyph-name="health" unicode="h" 
d="M442 329.376c34.1367 -0.0878906 61.9121 -27.8633 62 -62v-248c-0.0878906 -34.1357 -27.8633 -61.9121 -62 -62h-372c-34.1279 0.0966797 -61.9033 27.8721 -62 62v248c0.105469 34.1191 27.8809 61.8945 62 62h92.9922v62
c0.0527344 17.0635 13.9443 30.9551 31.0078 31.0078h124c17.0635 -0.0527344 30.9551 -13.9443 31.0078 -31.0078v-62h92.9922zM194 391.376v-62h124v62h-124zM380 112.368h-0.015625v62h-92.9922v92.9922h-62v-92.9922h-92.9922v-62h93.0078v-92.9922h62v92.9922h92.9922z
" />
    <glyph glyph-name="help" unicode="?" 
d="M256 437.888c136.976 0 248 -111.023 248 -248c0 -136.976 -111.024 -248 -248 -248s-248 111.024 -248 248c0 136.977 111.024 248 248 248zM256 3.8877c25.666 0 46.4961 20.8301 46.4961 46.4961s-20.8301 46.4961 -46.4961 46.4961
s-46.4961 -20.8301 -46.4961 -46.4961s20.8301 -46.4961 46.4961 -46.4961zM364.56 266.384c2.03223 7.04785 3.68066 18.7217 3.68066 26.0566v0.167969c0 13.7754 -2.73633 26.5439 -8.16016 38.2559c-4.47168 9.70605 -14.665 23.2539 -22.752 30.2393
c-9.72852 8.43262 -21.376 15.0244 -35.0078 19.7764c-13.6162 4.73633 -28.6885 7.10449 -45.2168 7.10449c-15.5039 0 -29.8555 -2.57617 -43.0391 -7.76074c-13.1846 -5.15137 -24.7363 -12.5273 -34.6562 -22.0957s-17.9043 -21.2158 -24.0322 -34.9121
s-9.95215 -28.9756 -11.5039 -45.8721h62.0156c6.19238 39.4883 23.4248 59.2002 51.6963 59.2002l0.740234 0.00488281c5.39258 0 13.8555 -1.56445 18.8916 -3.49316c4.73535 -1.84668 11.5664 -6.19043 15.248 -9.69531
c4.28809 -4.12793 7.61621 -9.04004 9.93652 -14.7207c2.31934 -5.67969 3.50391 -11.8721 3.50391 -18.6074c0 -3.61621 -0.272461 -7.10449 -0.78418 -10.4482c-0.52832 -3.37598 -1.91992 -7.00781 -4.16016 -10.8799
c-2.20801 -3.87207 -5.50391 -8.24023 -9.80762 -13.168c-4.30469 -4.92773 -10.3203 -10.5918 -18.0967 -16.9444c-17.9199 -14.9922 -30.1279 -29.2002 -36.6875 -42.6562c-6.43262 -13.3115 -11.8242 -31.2959 -11.3281 -68.0478h61.9521
c-3.07227 20.6719 -0.640625 37.3447 2.60742 44.3047c1.71289 3.75977 5.05664 8.25586 9.95215 13.4238c4.89648 5.16797 11.4082 11.1357 19.5039 17.8398c7.26465 6.03223 13.8721 12.3203 19.9199 18.8799c4.89551 5.28125 11.8418 14.5996 15.5049 20.7998
c4.31934 7.3125 7.66309 15.0723 10.0791 23.248z" />
    <glyph glyph-name="home" unicode="H" 
d="M512 141.888v-16h-64v-160h-160v96h-64v-96h-160v160h-64v16l256 256l96 -96v80h64v-144z" />
    <glyph glyph-name="industry" unicode="I" 
d="M512 237.536l-53.584 -59.0244c10.8799 -15.584 17.664 -33.5361 7.32806 -48.2881c-4.16016 -5.9834 -12.3525 -13.1035 -27.6797 -13.1035c-3.39258 0 -6.91211 0.368149 -10.4648 0.992172c7.82422 -9.44043 13.9209 -19.5684 15.1846 -29.168
c0.163086 -1.07422 0.294922 -2.82715 0.294922 -3.91309c0 -5.35645 -2.8418 -12.9932 -6.34277 -17.0469c-7.13672 -8.28809 -17.2803 -12.4961 -30.1758 -12.4961c-5.10449 0 -10.3369 0.671875 -15.5205 1.79199c3.77637 -5.87207 6.5918 -12.0322 7.44043 -18.2881
c1.08789 -8.04785 -1.10449 -15.5684 -6.32031 -21.7285c-6.94434 -8.17578 -16.7686 -12.5117 -28.4316 -12.5117c-8.59277 0 -17.3447 2.35156 -24.8809 5.26367c1.4082 -8.92773 0.576172 -18.624 -6.43164 -25.6318
c-3.93555 -3.96777 -9.42383 -5.95215 -16.2402 -5.95215c-13.0713 0 -29.4717 7.69629 -37.6953 12.0322l13.0078 14.1445c8.17578 -3.9209 18.1758 -7.71191 24.6875 -7.71191c2.17578 0 3.07227 0.431641 3.2002 0.543945
c4.08008 4.0957 -0.192383 18.4473 -4.6875 26.7832c-0.598633 1.125 -1.08398 3.07031 -1.08398 4.34375c0 5.10547 4.14258 9.24805 9.24805 9.24805c1.55762 0 3.87109 -0.706055 5.16309 -1.5752c0.192383 -0.112305 19.3281 -13.0244 35.6963 -13.0244
c6.30371 0 10.8799 1.9043 14.3359 5.98438c1.24316 1.37988 2.25098 4.00781 2.25098 5.86523c0 0.40625 -0.0546875 1.06152 -0.123047 1.46289c-1.75977 12.8477 -22.3359 31.2793 -34.8799 39.8555c-2.22559 1.50879 -4.03223 4.91504 -4.03223 7.60352
c0 1.51367 0.673828 3.77051 1.50391 5.03711c1.50098 2.32227 4.96289 4.20703 7.72754 4.20703c1.45312 0 3.63184 -0.623047 4.86523 -1.3916c0.288086 -0.208008 29.0234 -17.8877 51.168 -17.8877c7.3916 0 12.6719 1.96777 16.1758 6.06348
c1.04492 1.18848 1.89258 3.43652 1.89258 5.01855c0 0.416016 -0.0664062 1.08594 -0.148438 1.49414c-2.16016 16.3516 -33.2002 43.0078 -52.2559 55.9678c-1.92676 1.53516 -3.49023 4.78125 -3.49023 7.24414c0 5.11426 4.15039 9.26465 9.26367 9.26465
c1.36328 0 3.42773 -0.550781 4.61035 -1.22852h0.015625v-0.0166016c9.2002 -6.17578 36.9922 -22.1602 55.4404 -22.1602c7.9834 0 10.9756 2.95996 12.5761 5.2002c6.19141 8.86426 -4.43259 25.248 -17.0566 39.1846
c-19.4082 10.7041 -49.6162 27.4238 -62.0322 34.4639c-17.9512 10.1758 -54.8799 42.0479 -65.1191 53.8398c-10.2402 11.792 -33.8408 -6.14453 -42.0322 -13.3281c-8.19238 -7.18359 -31.792 -20.4961 -56.4004 -21.0244
c-24.6074 -0.495117 -37.7441 15.7285 -36.3994 21.5361c3.08789 13.3447 37.4238 44.6084 45.6318 56.4004c2.0957 3.00781 5.67969 7.87207 10.0156 13.5195c-17.6475 4.68848 -50.0957 17.1201 -106.319 49.6328l-93.2969 -132.145
c5.37598 -13.6162 24.1123 -56.9121 58.1445 -95.7764l-12.3359 -13.9355c-44.2881 49.6641 -64.0166 105.488 -64.8965 108.016c-0.276367 0.807617 -0.501953 2.15431 -0.501953 3.00783c0 1.61816 0.755859 4.00487 1.68652 5.32811l100.992 143.057
c1.52539 2.15723 4.9082 3.90723 7.5498 3.90723c1.38477 0 3.47853 -0.567383 4.67384 -1.26758c74.4961 -43.7754 107.056 -52.1436 117.104 -53.7598c10.3047 12.4639 21.0879 24.1924 26.4004 26.3203c10.2559 4.0957 72.3037 -9.2168 88.7041 -10.7686
c16.3994 -1.55176 64.5918 35.376 64.5918 35.376zM117.008 94.0801l-8.92773 -10.0957c-4.0127 -4.53027 -12.1807 -8.20605 -18.2324 -8.20605c-13.4453 0 -24.3574 10.9121 -24.3574 24.3574c0 5.09961 2.74414 12.335 6.12598 16.1523l56.7676 64.0801
c4.01074 4.5293 12.1748 8.20508 18.2246 8.20508c13.4355 0 24.3408 -10.9053 24.3408 -24.3408c0 -5.09375 -2.74023 -12.3232 -6.11719 -16.1367zM293.6 58.1123c10.0645 -8.92871 10.9922 -24.3359 2.1123 -34.3682l-32.7676 -35.6318
c-3.97656 -4.17871 -11.8848 -7.56934 -17.6523 -7.56934c-13.4512 0 -24.3682 10.917 -24.3682 24.3682c0 4.8252 2.48926 11.7637 5.55664 15.4893l9.34377 10.1758l4.01561 4.33594l19.3926 21.1035c4.01172 4.53125 12.1797 8.20898 18.2324 8.20898
c5.0918 0 12.3213 -2.73828 16.1348 -6.1123zM166.496 59.5039l-16.8965 -19.0723c-4.01074 -4.52734 -12.1748 -8.20215 -18.2236 -8.20215c-13.4395 0 -24.3467 10.9072 -24.3467 24.3467c0 5.09668 2.74316 12.3291 6.12304 16.1436l56.7676 64.0801
c3.99121 4.31348 11.999 7.81445 17.875 7.81445c13.4424 0 24.3525 -10.9102 24.3525 -24.3525c0 -4.93164 -2.58984 -11.9883 -5.7793 -15.75zM226.656 37.5361l-20.6562 -22.7686c-4.0127 -4.5293 -12.1807 -8.20508 -18.2324 -8.20508
c-13.4453 0 -24.3574 10.9121 -24.3574 24.3574c0 5.09961 2.74414 12.335 6.12598 16.1523l5.93555 6.52734l41.7119 45.9844c4.0127 4.5293 12.1807 8.20605 18.2324 8.20605c13.4453 0 24.3574 -10.9131 24.3574 -24.3584c0 -5.09863 -2.74414 -12.335 -6.12502 -16.1514
z" />
    <glyph glyph-name="info" unicode="i" 
d="M256 437.888c136.976 0 248 -111.023 248 -248c0 -136.976 -111.024 -248 -248 -248s-248 111.024 -248 248c0 136.977 111.024 248 248 248zM256 375.888c-25.666 0 -46.4961 -20.8301 -46.4961 -46.4961c0 -25.665 20.8301 -46.4951 46.4961 -46.4951
s46.4961 20.8301 46.4961 46.4951c0 25.666 -20.8301 46.4961 -46.4961 46.4961zM318 34.8799v31.0078h-31.0078v186.017h-92.9922v-31.0078h31.0078v-155.009h-31.0078v-31.0078h124z" />
    <glyph glyph-name="link" unicode="L" 
d="M469.808 401.744c45.584 -45.584 45.584 -120.192 -0.03125 -165.809l-73.9366 -73.9199c0.368164 21.8086 -3.56836 43.6328 -11.8721 64.1279l47.792 47.8086c10.248 10.2725 18.5654 30.3857 18.5654 44.8955c0 14.5107 -8.31738 34.624 -18.5654 44.8965
l-1.95215 1.95215c-10.2695 10.2471 -30.3799 18.5635 -44.8877 18.5635s-34.6182 -8.31641 -44.8877 -18.5635l-105.664 -105.664c-10.248 -10.2725 -18.5654 -30.3857 -18.5654 -44.8965c0 -14.5098 8.31737 -34.623 18.5654 -44.8955l1.9678 -1.93652
c3.14551 -3.12695 8.80858 -7.47754 12.6396 -9.71191l-38.6719 -38.6875c-4.14355 3.18359 -8.17578 6.60742 -11.9834 10.3994l-1.93652 1.95215c-45.6162 45.584 -45.6162 120.192 0 165.792l105.664 105.648c45.584 45.6162 120.208 45.6162 165.809 0zM313.664 249.52
l2 -1.98341c45.5996 -45.584 45.5996 -120.208 0 -165.824l-105.664 -105.647c-45.5996 -45.6162 -120.224 -45.6162 -165.824 0l-1.95215 1.95117c-45.5996 45.584 -45.5996 120.208 0 165.824l73.9199 73.9199
c-0.0126953 -0.780273 -0.0244141 -2.04688 -0.0244141 -2.82715c0 -17.5537 5.33691 -45.0088 11.9131 -61.2842l-47.8086 -47.8086c-10.2471 -10.2695 -18.5635 -30.3799 -18.5635 -44.8877s8.31641 -34.6182 18.5635 -44.8877l1.95215 -1.95215
c10.2695 -10.2559 30.3828 -18.5791 44.8965 -18.5791c14.5127 0 34.626 8.32324 44.8955 18.5791l105.648 105.664c10.248 10.2725 18.5654 30.3857 18.5654 44.8955c0 14.5107 -8.31738 34.624 -18.5654 44.8965l-1.96777 1.96777
c-3.87207 3.87207 -8.12891 7.04004 -12.6406 9.71191l38.6719 38.6562c3.49609 -2.64941 8.86426 -7.30176 11.9844 -10.3848z" />
    <glyph glyph-name="location" unicode="[" 
d="M256.992 442.416c81.0605 -0.0166016 146.85 -65.8184 146.85 -146.88c0 -1.70508 -0.0585938 -4.47266 -0.129883 -6.17578l-0.223633 -3.66406l-0.176758 -2.33594c-0.0957031 -1.28027 -0.191406 -2.57617 -0.351562 -3.87207
c-12.1758 -118.641 -145.968 -345.601 -145.968 -345.601s-133.776 226.96 -145.968 345.601c-0.160156 1.2793 -0.272461 2.57617 -0.352539 3.87207l-0.175781 2.33594l-0.223633 3.66406c-0.0722656 1.70312 -0.129883 4.4707 -0.129883 6.17578
c0 81.0605 65.7881 146.863 146.85 146.88zM320.56 283.504c-0.547852 34.5332 -29.0225 62.5596 -63.5596 62.5596s-63.0117 -28.0264 -63.5596 -62.5596c-0.00488281 -0.27832 -0.00878906 -0.730469 -0.00878906 -1.00879c0 -35.0889 28.4785 -63.5674 63.5684 -63.5674
s63.5684 28.4785 63.5684 63.5674c0 0.27832 -0.00390625 0.730469 -0.00878906 1.00879z" />
    <glyph glyph-name="lovedata" unicode="o" 
d="M373.792 408.608c71.8574 -0.0273438 130.19 -58.3672 130.208 -130.225c0 -141.536 -152.976 -185.439 -247.984 -329.088c-100.527 144.561 -248.016 182.896 -248.016 329.088c0.00878906 71.8662 58.3418 130.206 130.208 130.225
c52.1279 0 97.0078 -42.416 117.808 -86.7041c20.7842 44.2881 65.6484 86.7041 117.776 86.7041z" />
    <glyph glyph-name="mailing-list" unicode="m" 
d="M511.6 290.384h0.400391v-12.4961c0 -17.6318 -16.0957 -40.0635 -35.7764 -49.9033l-28.2236 -14.0967v144h-384v-144l-28.2236 14.0967c-19.6807 9.83984 -35.7764 32.2715 -35.7764 49.9033v12.4961h0.400391c1.04004 16.0645 14.5117 35.0566 31.5996 45.3438
v54.1602h106.992l81.2314 40.624c9.84082 4.91211 22.8008 7.37598 35.7764 7.37598s25.9355 -2.47949 35.7764 -7.37598l81.2314 -40.624h106.992v-54.1602c17.0879 -10.2715 30.5595 -29.2793 31.5996 -45.3438zM306.096 126.08l184.433 92.1924
c6.46094 3.25 16.0801 9.80176 21.4717 14.624v-251.009c0 -22 -18 -40 -40 -40h-432c-22.0186 0.0615234 -39.9385 17.9814 -40 40v251.009c6.46387 -5.76074 13.6963 -10.7529 21.4717 -14.6406l184.433 -92.1758c13.8877 -6.94434 31.6797 -10.7842 50.0957 -10.7842
s36.208 3.83984 50.0957 10.7842zM112.048 306.736h287.888v-21.9688h-287.888v21.9688zM112.048 241.888h287.888v-21.9678h-287.888v21.9678zM112.048 177.04v-21.9678h287.888v21.9678h-287.888z" />
    <glyph glyph-name="math" unicode="v" 
d="M424.032 445.888h-0.144531c0.907227 0.0371094 2.38086 0.0664062 3.28906 0.0664062c45.1143 0 81.7285 -36.6143 81.7285 -81.7275c0 -45.1143 -36.6143 -81.7285 -81.7285 -81.7285c-0.876953 0 -2.2998 0.0273438 -3.17676 0.0615234h-0.208008
c-10.0322 0 -19.6484 1.82422 -27.9521 4.97656l-24.6074 -38.832c13.3975 -13.2363 24.2715 -39.2627 24.2715 -58.0957c0 -45.0791 -36.5859 -81.6641 -81.6641 -81.6641h-0.255859l-0.27832 -0.000976562c-8.15527 0 -20.9473 2.3877 -28.5537 5.32812l-26.7998 -41.1836
c13.0449 -13.1836 23.6318 -38.9365 23.6318 -57.4824c0 -45.1143 -36.6143 -81.7285 -81.7285 -81.7285c-45.1133 0 -81.7275 36.6143 -81.7275 81.7285c0 23.1885 15.3037 52.9619 34.1602 66.459l-54.3203 127.071
c-4.4375 -0.899414 -11.7139 -1.62988 -16.2412 -1.62988c-45.1143 0 -81.7285 36.6143 -81.7285 81.7285c0 45.1133 36.6143 81.7275 81.7285 81.7275c45.1133 0 81.7275 -36.6143 81.7275 -81.7275c0 -4.17871 -0.623047 -10.9033 -1.38965 -15.0107l85.6475 -35.5518
c13.5391 18.5156 43.1426 33.5684 66.0801 33.6006h0.208008h0.274414c7.88574 0 20.2852 -2.22949 27.6777 -4.97656l24.6074 38.832c-13.3975 13.2354 -24.2715 39.2627 -24.2715 58.0957c0 45.0791 36.5859 81.6641 81.6641 81.6641h0.0800781zM81.7598 239.152
c27.4502 0.00878906 49.7354 22.2939 49.7441 49.7441v0.12793c-0.0615234 27.4053 -22.3545 49.6475 -49.7598 49.6475c-27.4678 0 -49.7598 -22.292 -49.7598 -49.7598s22.292 -49.7598 49.7598 -49.7598h0.015625zM200.368 -34.6084l-0.160156 0.0644531h0.12793
c27.4502 0.00878906 49.7354 22.2939 49.7441 49.7441v0.0634766c-0.0615234 27.4062 -22.3545 49.6484 -49.7598 49.6484c-27.4678 0 -49.7598 -22.293 -49.7598 -49.7598c0 -27.4678 22.292 -49.7607 49.7598 -49.7607h0.015625h0.0322266zM228.688 92l26.7363 41.2002
c-13.0283 13.126 -23.6016 38.7881 -23.6016 57.2822c0 4.47656 0.717773 11.6729 1.60156 16.0615l-85.04 35.456c-9.00781 -12.6562 -21.5039 -22.6562 -19.0879 -19.1836l54.1758 -127.12c5.24805 1.05566 10.6885 1.61621 16.2559 1.61621h0.270508
c8.18945 0 21.043 -2.37988 28.6895 -5.3125zM340.048 181.424l0.0322266 0.0644531c27.4414 0 49.7266 22.2705 49.7441 49.7119c-0.0175781 27.4404 -22.3027 49.7119 -49.7441 49.7119c-27.459 0 -49.7441 -22.2852 -49.7441 -49.7441
c0 -27.4414 22.2715 -49.7266 49.7119 -49.7441zM450.576 356.208v0.0644531c27.4229 -0.000976562 49.709 22.2559 49.7441 49.6797v0.015625c0 27.4678 -22.293 49.7598 -49.7607 49.7598c-27.4668 0 -49.7598 -22.292 -49.7598 -49.7598
s22.293 -49.7598 49.7598 -49.7598h0.0166016z" />
    <glyph glyph-name="meet-us" unicode="M" 
d="M503.008 -20.6084c-17.8877 -18.2881 -93.2314 -36.4795 -179.824 -42.9434l-2.12793 -0.160152c-9.9834 -0.719727 -20.0801 -1.34375 -30.2881 -1.71191l-1.24805 -0.0644531c-8.65625 -0.325195 -22.7129 -0.604492 -31.376 -0.624023h-0.879883
c-10.4961 0 -20.96 0.255859 -31.376 0.591797l-0.624008 0.0322266c-0.208008 0 -0.416031 0 -0.624039 0.0322266h-0.03125c-8.35449 0.334961 -21.9023 1.10254 -30.2402 1.71191l-2.14453 0.160156c-86.624 6.48047 -161.951 24.6562 -179.84 42.9443
c-22.2559 22.752 -7.05566 62.2881 11.1201 79.6641c16.2402 15.4717 58.6562 25.0879 101.104 35.3438l3.10352 0.751953l3.83984 0.944336c4.57617 1.11914 9.13672 2.25586 13.6641 3.40723l0.560547 0.12793c12.5273 3.2168 41.3594 12.7207 44.7041 28.7207
c-0.336914 37.2793 -10.4326 49.6953 -20.3682 60.8633c-4.7207 5.34473 -9.44043 10.416 -13.0244 17.7607c-11.1523 22.752 -30.3203 78.96 -11.1523 170.704c9.02441 43.0713 50.2568 58.96 79.9209 64.8154c17.792 3.52051 31.4072 3.42383 31.4072 3.42383h0.879883
s96.8643 0.671875 111.328 -68.2236c19.1846 -91.7441 0 -147.952 -11.1514 -170.688c-11.0879 -22.7676 -32.8965 -23.5518 -33.3926 -78.6396c3.36035 -16 32.1758 -25.5039 44.6885 -28.7197c4.75195 -1.2002 9.58398 -2.38379 14.416 -3.56836l3.47168 -0.847656
l4.36816 -1.05664c42.1123 -10.1436 83.9199 -19.7432 100.032 -35.0879c18.1758 -17.376 33.376 -56.9121 11.1035 -79.6641z" />
    <glyph glyph-name="mobile-device" unicode="/" 
d="M357.952 437.888c27.8564 -0.0791016 50.5293 -22.751 50.6074 -50.6074v-394.784c-0.0869141 -27.8477 -22.7598 -50.5205 -50.6074 -50.6084h-192.336c-27.8564 0.0791016 -50.5293 22.752 -50.6084 50.6084v394.784
c0.0791016 27.8564 22.7519 50.5283 50.6084 50.6074h192.336zM261.776 -37.8564c19.5674 0 35.4238 11.3281 35.4238 25.2969c0 13.9834 -15.8564 25.3115 -35.4238 25.3115c-19.5684 0 -35.4404 -11.3438 -35.4404 -25.3115c0 -13.9688 15.8721 -25.2969 35.4404 -25.2969
zM368.064 38.0645v334.031h-212.576v-334.031h212.576z" />
    <glyph glyph-name="new" unicode="&#x3c;" 
d="M487.808 144.192c-3.16797 -15.9043 10.8486 -36.8643 4.76855 -51.4727c-6.25586 -14.832 -31.1358 -19.8076 -40.0645 -32.9912c-8.99219 -13.2969 -4.14352 -38.0322 -15.5195 -49.3125c-11.376 -11.2959 -36.2725 -6.41602 -49.6963 -15.2803
c-13.3281 -8.83203 -18.3203 -33.5518 -33.2959 -39.7275c-2.6875 -1.12012 -5.59961 -1.56836 -8.62402 -1.56836c-11.9199 0 -26.0322 6.76855 -38.1602 6.76855c-1.71191 0 -3.3916 -0.12793 -5.05566 -0.432617c-15.5684 -3.05566 -29.6797 -24.0322 -46.1445 -24.0322
c-16.4639 0 -30.624 20.9766 -46.1592 24.0322c-1.66406 0.288086 -3.34473 0.432617 -5.08887 0.432617c-12.1113 0 -26.2236 -6.76855 -38.1592 -6.76855c-3.05664 0 -5.96875 0.463867 -8.64062 1.56836c-14.9922 6.16016 -19.9678 30.8799 -33.2793 39.7754
c-13.4082 8.86426 -38.3525 3.98438 -49.7441 15.3447c-11.3604 11.2314 -6.46387 35.9033 -15.4561 49.2481c-8.91211 13.1992 -33.8721 18.1436 -40.0801 32.9912c-6.09668 14.6084 7.95215 35.5205 4.78418 51.4082c-3.07227 15.4082 -24.1924 29.4238 -24.1924 45.7119
c0 16.3047 21.1357 30.3047 24.1924 45.6963c3.16797 15.9043 -10.8486 36.8643 -4.75195 51.4561c6.22363 14.8477 31.1514 19.8242 40.0479 33.0078c8.99218 13.2959 4.14355 38.0322 15.5195 49.3125c11.376 11.2793 36.2881 6.41602 49.7119 15.3115
c13.3125 8.81641 18.2881 33.5518 33.2803 39.7119c2.6875 1.10449 5.59961 1.55176 8.63965 1.55176c11.9043 0 26.0322 -6.76758 38.1602 -6.76758c1.40918 0 3.68164 0.186523 5.07227 0.416016c15.5361 3.05566 29.6797 24.0156 46.1436 24.0156
c16.4648 0 30.5928 -20.96 46.1445 -24.0156c1.36621 -0.24707 3.60156 -0.448242 4.98926 -0.448242h0.0986328c12.0957 0 26.208 6.76855 38.1436 6.76855l0.404297 0.00292969c2.34961 0 6.03223 -0.696289 8.21973 -1.55566
c14.9766 -6.15918 19.9688 -30.8955 33.2803 -39.7754c13.4082 -8.87988 38.3525 -4.0166 49.7441 -15.3438c11.3604 -11.248 6.49612 -35.9688 15.4883 -49.2646c8.91211 -13.1836 33.8554 -18.1436 40.08 -32.9922c6.08008 -14.5918 -7.96875 -35.5039 -4.80078 -51.4072
c3.07227 -15.3926 24.1924 -29.3926 24.1924 -45.6807s-21.1201 -30.3037 -24.1924 -45.6953zM176.4 133.056v114.944h-23.6641v-77.1035h-0.320312l-47.9844 77.1035h-25.1035v-114.944h23.6641v76.9443h0.319336l47.8086 -76.9443h25.2803zM285.856 133.056h0.015625
v21.2324h-61.9844v28.1758h55.7119v19.6484h-55.7119v24.624h60.6885v21.2637h-85.9678v-114.944h87.248zM412.416 133.056h-0.015625l30.9434 114.944h-24.7998l-18.832 -79.2002h-0.335938l-19.6484 79.2002h-23.6631l-19.9688 -78.2559h-0.335938l-18.1914 78.2559
h-25.2803l30.4482 -114.944h25.5996l19.1523 78.2246h0.335938l19.4717 -78.2246h25.1201z" />
    <glyph glyph-name="newcomers" unicode="n" 
d="M120.384 -16.9443v310h42.6084v62c0.0527344 17.0645 13.9443 30.9561 31.0078 31.0088h124c17.0635 -0.0527344 30.9551 -13.9443 31.0078 -31.0088v-62h42.6084v-310h-271.232zM194 354.992v-61.9365h124l0.015625 61.9365l-0.0634766 0.0634766h-123.888z
M457.504 293.056c25.5957 -0.0693359 46.4258 -20.9004 46.4961 -46.4961v-217.008c-0.0703125 -25.5957 -20.9004 -46.4258 -46.4961 -46.4961h-37.792v310h37.792zM92.2881 293.056v-309.983h-37.792c-25.5957 0.0703125 -46.4258 20.9004 -46.4961 46.4961v216.991
c0.0703125 25.5957 20.9004 46.4267 46.4961 46.4961h37.792z" />
    <glyph glyph-name="news" unicode="N" 
d="M256 429.888c132.544 0 240 -107.456 240 -240s-107.456 -240 -240 -240s-240 107.456 -240 240s107.456 240 240 240zM391.792 109.888h56.2402c7.09473 16.9785 13.9697 45.6504 15.3438 64h-63.7275c-0.664062 -17.8486 -4.18359 -46.5205 -7.85645 -64z
M120.208 269.888h-56.2558c-8.52832 -20.4473 -13.6797 -41.9033 -15.3438 -64h63.7432c0.664062 17.8486 4.18359 46.5215 7.85644 64zM359.024 269.888h-87.0244v-64h95.6484c-0.944336 22.0801 -3.82422 43.5205 -8.62402 64zM272 301.888h77.6318
c-5.37598 15.04 -11.792 28.8486 -19.2314 41.248c-10.7842 17.9365 -23.4883 32.3525 -36.7842 41.7285c-7.08789 5.02344 -14.3203 8.55957 -21.6162 10.6875v-93.6641zM181.616 343.136c-6.43457 -10.8613 -15.0576 -29.3398 -19.248 -41.248h77.6319v93.6807
c-6.45801 -1.94727 -16.1348 -6.73535 -21.5996 -10.6885c-13.2969 -9.3916 -26 -23.8076 -36.7842 -41.7441zM240 269.888h-87.0401c-4.7998 -20.4795 -7.67969 -41.9199 -8.62402 -64h95.6641v64zM63.9522 109.888h56.2402c-4.27246 20.2246 -6.97656 41.6807 -7.85645 64
h-63.7275c1.38086 -18.3477 8.25489 -47.0195 15.3438 -64zM144.336 173.888c0.944336 -22.0801 3.83984 -43.5195 8.63965 -64h87.0244v64h-95.6641zM240 77.8877h-77.6319c4.18359 -11.9082 12.7998 -30.3877 19.2314 -41.248
c10.7842 -17.9355 23.4883 -32.3516 36.7842 -41.7275c5.46875 -3.95605 15.1533 -8.74414 21.6162 -10.6885v93.6641zM330.384 36.6396c6.43262 10.8604 15.0488 29.3398 19.2324 41.248h-77.6318v-93.6797c6.45605 1.95801 16.1406 6.74609 21.6152 10.6885
c13.2969 9.3916 26 23.8076 36.7842 41.7432zM272 109.888h87.04c4.04004 17.4404 7.90332 46.1123 8.62402 64h-95.6641v-64zM399.68 205.888h63.7285c-1.66406 22.0967 -6.81641 43.5527 -15.3438 64h-56.2568c3.6582 -17.4814 7.18457 -46.1533 7.87207 -64z
M431.328 301.888c-6.74219 10.5312 -19.4004 26.2441 -28.2559 35.0723c-13.9121 13.9258 -39.6094 32.1328 -57.3604 40.6396c15.4717 -20.5596 28.3525 -46.3359 37.6641 -75.7119h47.9521zM108.928 336.96c-8.85547 -8.82812 -21.5137 -24.541 -28.2559 -35.0723h47.9521
c9.32812 29.376 22.1924 55.1523 37.6641 75.7119c-17.751 -8.50684 -43.4482 -26.7139 -57.3604 -40.6396zM80.6719 77.8877c6.74219 -10.5312 19.4004 -26.2432 28.2559 -35.0713c13.9121 -13.9258 39.6094 -32.1328 57.3604 -40.6406
c-15.4717 20.5605 -28.3359 46.3359 -37.6641 75.7119h-47.9521zM403.072 42.8164c8.85547 8.82812 21.5137 24.54 28.2559 35.0713h-47.9521c-9.32812 -29.376 -22.1924 -55.1514 -37.6641 -75.7119c17.751 8.50781 43.4482 26.7148 57.3604 40.6406z" />
    <glyph glyph-name="nutraceuticals" unicode="&#x22;" 
d="M345.744 381.984v0c22.5215 0 40.7998 -18.2783 40.7998 -40.8008v-252.976h-48.96v130.592h-32.6396v122.384c0 22.5225 18.2783 40.8008 40.7998 40.8008zM231.52 381.984c4.49609 -0.00878906 8.14455 -3.66504 8.14455 -8.16016v-73.4404
c0 -7.21582 -6.40039 -11.248 -13.5205 -16.3193c-8.97559 -6.38477 -19.1191 -14.4326 -19.1191 -32.6406v-163.216h-48.9609v163.232c0 18.208 -10.1279 26.2559 -19.1191 32.6396c-7.12012 5.07227 -13.5039 9.10352 -13.5039 16.3203v73.4238
c0 4.50391 3.65527 8.16016 8.15918 8.16016c4.50488 0 8.16016 -3.65625 8.16016 -8.16016v-57.1201c0 -2.25586 3.66406 -4.06445 8.16016 -4.06445s8.16016 1.82422 8.16016 4.08008v57.1045c0 4.50391 3.65527 8.16016 8.16016 8.16016
c4.50391 0 8.16016 -3.65625 8.16016 -8.16016v-57.1045c0 -2.25586 3.66406 -4.08008 8.15918 -4.08008c4.49609 0 8.16016 1.82422 8.16016 4.08008v57.1045c0 4.50391 3.65625 8.16016 8.16016 8.16016c4.50488 0 8.16016 -3.65625 8.16016 -8.16016v-57.1045
c0 -2.25586 3.66406 -4.08008 8.16016 -4.08008s8.16016 1.82422 8.16016 4.08008v57.1045c0 4.50391 3.65526 8.16016 8.15916 8.16016zM503.84 60.3037c4.49609 0 8.16016 -3.63184 8.17578 -8.16016v-18.3359c0 -4.50391 -3.6553 -8.15918 -8.15921 -8.15918h-34.4804
c0.192383 -0.912109 0.496063 -1.79199 0.496063 -2.7207c0 -11.6318 -25.7598 -29.248 -37.4082 -29.248h-352.896c-11.6484 0 -37.4082 17.6006 -37.4082 29.248c0 0.928711 0.288086 1.80859 0.496094 2.7207h-34.4961c-4.50488 0 -8.16016 3.65527 -8.16016 8.15918
v18.3359c0 4.50488 3.65527 8.16016 8.16016 8.16016h495.68z" />
    <glyph glyph-name="open-day" unicode="O" 
d="M495.584 61.8242c1.28027 -6.16016 -0.480469 -12.5439 -4.71973 -17.1846c-4.27246 -4.60742 -10.4961 -6.86328 -16.7363 -6.12793l-19.4404 2.41602c-8.27148 1.05664 -14.9434 7.21582 -16.6075 15.3926l-6.84766 33.2637l-72.5605 6.73633l-28.2402 -146.688
c-1.67578 -8.69141 -10.2207 -15.7451 -19.0723 -15.7451c-1.2207 0 -3.17773 0.222656 -4.36719 0.49707l-31.584 7.28027c-8.31641 1.91504 -15.0654 10.3945 -15.0654 18.9287c0 1.08398 0.176758 2.8252 0.393555 3.8877l10.5918 52.1279l-177.648 31.2793
l-10.4961 -31.4717c-2.42383 -7.3418 -10.667 -13.2998 -18.3984 -13.2998c-1.0752 0 -2.80371 0.173828 -3.85742 0.387695l-24.3037 4.84766c-8.63184 1.71582 -15.6377 10.251 -15.6377 19.0518c0 1.39355 0.289062 3.61719 0.645508 4.96484l95.9678 365.664
c2.17676 8.28809 9.5205 14.1758 18.0967 14.4961l267.279 9.71191c0.183594 0.00585938 0.480469 0.0107422 0.664062 0.0107422c8.7002 0 17.2275 -6.90723 19.0322 -15.4189zM249.168 122.656l-25.8877 4.75195l29.7119 132.128l-73.4727 3.05566l-12.3193 -40.3203
l25.0557 -3.4873l-18.8955 -83.9844l-24.2246 3.37598l-10.4639 -46.5273l100.96 -15.2969zM273.488 307.312c2.43164 10.9287 0.399414 21.8242 -5.69629 30.6562c-5.15625 7.44727 -16.6328 14.4365 -25.6162 15.6006
c-21.8877 3.13574 -42.7676 -12.1279 -47.6162 -33.6641c-0.583984 -2.43848 -1.05762 -6.45117 -1.05762 -8.95801c0 -6.56738 3.01172 -16.2959 6.72168 -21.7139c5.16016 -7.45117 16.6436 -14.4404 25.6328 -15.6006
c1.83984 -0.255859 3.69533 -0.383789 5.51955 -0.383789c19.9521 0 37.6484 14.3203 42.1123 34.0635zM368.432 136.752l57.0723 -7.28027l-26.7197 162.8z" />
    <glyph glyph-name="piechart" unicode="p" 
d="M224.992 375.888v-217.008h216.992c0 -119.855 -97.1367 -216.992 -216.992 -216.992c-119.856 0 -216.992 97.1367 -216.992 216.992c0 119.856 97.1523 217.008 216.992 217.008zM287.008 437.888c119.856 0 216.992 -97.1514 216.992 -216.991h-216.992v216.991z" />
    <glyph glyph-name="plane" unicode="4" 
d="M505.088 138.928c3.58008 -2.35938 6.67676 -7.75 6.91211 -12.0312v-26.6729c0 -4.39941 -3.50391 -7.12012 -7.75977 -6.06348l-216.24 54.0635v-113.327l6.94434 -6.67285l2.12793 -2.03125l49.1514 -47.1201c3.18457 -3.04004 5.77637 -9.12012 5.77637 -13.5205
v-25.3281c0 -4.38379 -3.00781 -6 -6.65625 -3.56738l-89.3438 59.5674l-89.3438 -59.5674c-3.64844 -2.43262 -6.65625 -0.816406 -6.65625 3.56738v25.3281c0 4.41602 2.5918 10.4961 5.77637 13.5205l58.2236 55.8242v113.327l-216.24 -54.0635
c-4.27148 -1.05664 -7.75977 1.66406 -7.75977 6.06348v26.6729c0 4.39941 3.12012 9.82323 6.91211 12.0312l217.088 126.656v99.4561c0 17.5996 6.43164 44.8799 14.3037 60.6396l3.37598 6.75195c7.87207 15.7441 20.752 15.7441 28.624 0l3.37598 -6.75195
c7.88867 -15.7598 14.3203 -43.04 14.3203 -60.6396v-99.4561z" />
    <glyph glyph-name="publication" unicode="P" 
d="M384 365.888l0.285156 0.000976562c40.416 0 97.625 -21.9131 127.699 -48.9131v-286.144l-1.02441 -0.944336c-8.19238 -7.24805 -17.0244 -13.792 -26.3838 -19.5674c-24.207 19.6338 -69.1484 35.5684 -100.315 35.5684
c-0.0722656 0 -0.188477 -0.000976562 -0.260742 -0.000976562s-0.188477 0.000976562 -0.260742 0.000976562c-31.167 0 -76.1084 -15.9346 -100.315 -35.5684c-8.54395 -6.90234 -20.8301 -19.6328 -27.4238 -28.416c-6.51172 8.67188 -13.8877 16.6396 -22 23.8232
c-24.9639 22.1689 -72.3213 40.1611 -105.708 40.1611c-0.0810547 0 -0.210938 -0.000976562 -0.291992 -0.000976562c-0.0761719 0 -0.200195 0.000976562 -0.276367 0.000976562c-31.168 0 -76.1094 -15.9346 -100.315 -35.5684
c-9.36035 5.79199 -18.1758 12.3193 -26.3838 19.5674l-1.02441 0.944336v286.144c33.9678 30.416 78.8164 48.9121 128 48.9121s94.0322 -18.4961 128 -48.9121c30.082 27 87.3018 48.9131 127.723 48.9131zM128 77.8877l0.297852 0.000976562
c28.3203 0 71.1953 -11.5195 95.7021 -25.7129v249.696c-26.7363 20.0957 -59.9844 32.0156 -96 32.0156s-69.2637 -11.9033 -96 -32v-249.712c28.2402 16.3525 61.0244 25.7119 96 25.7119zM384 77.8877l0.297852 0.000976562c28.3203 0 71.1953 -11.5195 95.7022 -25.7129
v249.712c-26.7363 20.0967 -59.9678 32 -96 32s-69.2637 -11.9199 -96 -32.0156v-249.696c28.2402 16.3525 61.0244 25.7119 96 25.7119z" />
    <glyph glyph-name="research" unicode=")" 
d="M255.088 101.936c0 -21.0283 -17.0664 -38.0957 -38.0957 -38.0957s-38.0957 17.0674 -38.0957 38.0957c0 21.0293 17.0664 38.0967 38.0957 38.0967c21.0283 0 38.0957 -17.0674 38.0957 -38.0967zM57.8242 114.816h-0.0166016
c-27.3613 0 -49.5674 22.2061 -49.5674 49.5674c0 27.3525 22.1992 49.5596 49.5518 49.5684h0.015625c27.3623 0 49.5684 -22.207 49.5684 -49.5684c0 -27.3525 -22.1992 -49.5586 -49.5518 -49.5674zM450.144 329.072h0.0185547
c28.5361 0 51.6963 -23.1602 51.6963 -51.6963s-23.1602 -51.6963 -51.6963 -51.6963c-23.2783 0 -45.9658 18.5078 -50.6426 41.3125c-0.602539 2.85059 -1.09277 7.52832 -1.09277 10.4424c0 5.57812 1.74414 14.2822 3.89355 19.4297
c7.21582 17.7734 28.6416 32.2021 47.8232 32.208zM273.376 360.688c-3.04004 7.18457 -7.51953 13.5205 -13.0557 18.8164l-1.08789 -0.0634766l0.303711 0.03125c0.160156 0.112305 0.351562 0.208008 0.52832 0.304688
c-0.0605469 0.0458984 -0.146484 0.131836 -0.192383 0.191406c6.26953 3.71777 16.6631 9.35254 23.2002 12.5762c39.5195 20.4482 77.0879 32.1758 108.288 32.1758c25.8721 0 46.6074 -7.34375 61.1992 -22.2559c9.93652 -10.1758 14.6885 -22.9443 14.6885 -22.9443
c4.87988 -11.584 7.18362 -25.0557 7.00784 -39.9512c-5.04004 2.51172 -16.9444 3.79199 -24.1123 3.11914c-0.255859 15.5361 -3.69531 28.5283 -10.416 37.9043c0 0 -2.17578 3.10449 -3.96777 4.99219c-29.9355 31.3281 -84.3359 13.8076 -119.168 -1.2002
c-12.1729 -6.09277 -31.5332 -16.708 -43.2158 -23.6963zM404.336 168.944c59.2158 -79.6807 90.9756 -155.937 57.5684 -189.44c-8.78418 -8.71973 -21.0879 -13.3604 -36.5127 -13.3604c-25.0078 0 -57.8398 12.3369 -95.6953 32.7686l-1.58398 0.543945
c-15.5264 8.97266 -39.8975 24.8135 -54.4004 35.3604c-17.6963 -13.5361 -35.5039 -20.9443 -53.1357 -36.9443h0.0478516c-48.0645 -32 -94.4482 -44.1279 -131.84 -44.1279c-25.8721 0 -46.6084 8.46387 -61.2002 23.3594
c-9.95215 10.1924 -14.6719 22.9922 -14.6719 22.9922c-11.8564 28.0967 -8.51172 67.2324 7.93555 110.801c5.53223 -3.82812 15.3379 -8.17969 21.8887 -9.71289c-16.3525 -44.1592 -16.8965 -81.2158 -2.33594 -101.632c1.05078 -1.25781 2.84277 -3.22168 4 -4.38379
c9.9834 -10.1436 85.3271 -63.1836 276.768 116.704c15.7236 14.6025 39.1709 40.2061 52.3359 57.1523c-18.7285 23.8018 -51.3428 60.4658 -72.7998 81.8399c-15.2393 15.2695 -40.9648 38.9814 -57.4238 52.9277c-6.46387 -4.16016 -14.1123 -6.65625 -22.4004 -6.65625
h-0.015625c-22.875 0 -41.4404 18.5654 -41.4404 41.4404v0c0.046875 3.4502 0.957031 8.91211 2.03223 12.1914c-51.0557 34.3682 -92.5762 50.7686 -116.688 50.7686c-8.76758 0 -15.1992 -2.04785 -19.2158 -6.03223
c-18.2402 -18.2559 2.14453 -77.9199 56.1123 -152.304c10.7451 12.9395 29.1172 33.0957 41.0078 44.9922c7.29883 7.25195 19.4766 18.6709 27.1846 25.4873c2.99219 -6.04199 9.6377 -14.4355 14.832 -18.7354c-7.13379 -6.32812 -18.416 -16.915 -25.1846 -23.6318
c-12.5596 -12.5498 -31.8848 -33.8818 -43.1357 -47.6162c16.5459 -21.1396 45.1885 -53.8896 63.9355 -73.1045c-5.51367 -4.14844 -12.7676 -12.377 -16.1914 -18.3682c-28.3682 29.168 -54.8643 59.9043 -77.4561 90.1924
c-0.400391 0.160156 -0.78418 0.400391 -1.16797 0.608398c0.111328 0.143555 0.255859 0.288086 0.351562 0.463867c-59.2314 79.6641 -90.9434 155.744 -57.5674 189.231c8.7998 8.73633 21.0557 13.2002 36.4951 13.2002c32.2881 0 78.8965 -20.3516 130.385 -55.0879
c7.05566 5.67969 15.9678 9.18359 25.7119 9.18359c22.8857 -0.00585938 41.46 -18.5859 41.46 -41.4717c0 -4.68359 -1.49316 -11.9805 -3.33203 -16.2881c16.9111 -14.2529 43.333 -38.5088 58.9756 -54.1436l7.96777 -8.09668l0.128906 0.176758
c18.208 -18.6777 46.1924 -50.3818 62.4639 -70.7686c6.54102 9.22754 16.5117 24.624 22.2559 34.3682c5.47363 -3.88867 15.2002 -8.37598 21.7119 -10.0156c-8.48047 -14.6406 -18.0645 -29.3281 -28.6406 -43.9199c0 0 0.112305 -0.576172 0.480469 -0.912109z
M444.624 -3.10352c8.48047 8.52734 8.6084 25.9355 0.912109 49.583c-0.12793 0.52832 -0.320312 1.05664 -0.496094 1.60059c-0.303711 0.864258 -0.608398 1.75977 -0.944336 2.65625c-0.335938 0.912109 -0.639648 1.82324 -0.991211 2.75195
c-0.272461 0.671875 -0.496094 1.34375 -0.75293 1.96777c-0.367188 1.04004 -0.783203 2.08008 -1.21582 3.12012c-0.303711 0.704102 -0.543945 1.43945 -0.879883 2.14355c-0.368164 0.944336 -0.78418 1.85644 -1.15234 2.8164l-1.26367 2.92774l-0.927734 2.03223
c-0.576172 1.34375 -1.16797 2.65625 -1.80859 3.98438c-0.175781 0.367188 -0.319336 0.751953 -0.511719 1.10352c-0.751953 1.64844 -1.58398 3.3125 -2.41602 5.02441l-0.175781 0.288086c-0.912109 1.8877 -1.87207 3.75977 -2.84766 5.61523l-0.0488281 0.0966797
l-2.5918 4.95996l-1.26367 2.23926c-0.736328 1.39258 -1.50391 2.78418 -2.27246 4.16016c-0.704102 1.21582 -1.40723 2.48047 -2.14355 3.71191l-1.59961 2.81641c-8.88086 15.1357 -19.248 30.832 -30.9121 46.8164
c-23.3594 -29.5166 -65.8291 -72.9766 -94.8008 -97.0088c15.4727 -11.1035 30.3047 -20.7041 44.2246 -28.8633c37.7275 -21.9521 68.3203 -32.5439 87.6641 -32.5439c8.76758 0 15.2314 2.03125 19.2158 6z" />
    <glyph glyph-name="resource" unicode="R" 
d="M132.544 345.456c136.72 79.3438 397.136 17.6641 369.392 2.91211c-118.703 -63.168 -110.224 -192.912 -193.359 -251.424c-62.624 -44.0645 -150.96 -21.8086 -202.017 -2.80078c0 0 -34.5918 -39.5996 -59.4395 -92.4473
c-8.30371 -17.7119 -44.7686 1.77539 -38.3682 16.7842c81.1201 189.968 357.28 284.688 357.28 284.688s-194.816 7.48828 -325.072 -146.784c-3.45605 35.248 -9.24805 130.561 91.584 189.072z" />
    <glyph glyph-name="reviewed-data" unicode="q" 
d="M475.2 288v-312c0 -22.4004 -17.6006 -40 -40 -40h-286.4l153.601 176l-104 91.2002l-110.4 -126.4l-49.5996 36.7998l-11.2002 -16v310.4c0 20.7998 17.5996 40 40 40h248v-160h160zM348.8 320v116.8c9.60059 -4.7998 19.2002 -11.2002 27.2002 -17.5996l72 -72
c6.40039 -6.40039 12.7998 -16 17.5996 -27.2002h-116.8zM102.4 -67.2002l-102.4 76.7998l44.7998 60.8008l48 -36.8008l108.8 124.801l56 -49.6006z" />
    <glyph glyph-name="services" unicode="(" 
d="M426.064 -50.1123h-16.2568l-139.855 139.872c-2.89355 -1.08105 -7.74609 -2.05566 -10.832 -2.17578l-68.1279 0.0322266c-8.35254 0 -18.2402 6.12793 -22.0166 13.5674l-52.0957 104.225c-3.75977 7.4082 -1.96777 18.4317 3.96777 24.3037l11.3281 11.3281
c2.46777 2.42969 7.28125 4.40234 10.7441 4.40234s8.27637 -1.97266 10.7441 -4.40234l60.6562 -60.6396c2.45508 -2.44727 7.26172 -4.43262 10.7275 -4.43262c3.4668 0 8.27246 1.98535 10.7285 4.43262l27.792 27.8076c2.45117 2.45898 4.44141 7.27148 4.44141 10.7441
c0 3.47168 -1.99023 8.28514 -4.44141 10.7441l-60.6406 60.6397c-2.45215 2.46094 -4.44238 7.27832 -4.44238 10.752c0 3.47461 1.99023 8.29102 4.44238 10.752l11.376 11.3281c5.9043 5.91992 16.832 7.66406 24.3203 3.96777l105.984 -52.1436
c7.4873 -3.66406 15.3916 -13.6162 15.3916 -21.9844v-68.1435c0 -3.24805 -2.67188 -7.00781 -3.91992 -10.752l139.92 -141.761v-12.5273c-0.0439453 -38.5605 -31.375 -69.8926 -69.9355 -69.9365z" />
    <glyph glyph-name="steps" unicode="#" 
d="M275.136 35.7764h0.0166016c8.30371 -18.4326 14.8633 -32.9922 16.0156 -45.7764c1.26367 -14.2725 -4.44824 -25.6318 -18 -35.7598c-8.36816 -6.24023 -17.2637 -9.4082 -26.4639 -9.4082c-23.7764 0 -49.0557 20.8164 -77.2959 63.6318
c-0.433594 0.650391 -0.785156 1.81152 -0.785156 2.59277c0 1.57715 1.13965 3.44141 2.54492 4.15918l87.6641 45.1846c0.558594 0.286133 1.52051 0.518559 2.14746 0.518559c1.7207 0 3.66211 -1.28613 4.33203 -2.87109
c2.63379 -6.18164 7.03516 -16.1592 9.82422 -22.2715zM175.072 8.44824l0.399414 -0.608398zM177.216 5.26367l0.175781 -0.271484c-0.0556641 0.0703125 -0.134766 0.191406 -0.175781 0.271484zM179.056 2.63965l0.384766 -0.543945
c-0.109375 0.148438 -0.28125 0.391602 -0.384766 0.543945zM181.232 -0.463867l0.287109 -0.383789c-0.0703125 0.112305 -0.199219 0.28418 -0.287109 0.383789zM183.168 -3.13574l0.335938 -0.432617zM185.36 -6.08008l0.335938 -0.448242zM187.424 -8.7998z
M189.584 -11.5684l0.368164 -0.463867zM191.856 -14.3682l0.0791016 -0.0957041zM193.92 -16.8477l0.383789 -0.463867c-0.109375 0.125 -0.28125 0.333008 -0.383789 0.463867zM198.352 -21.9355l0.384766 -0.416016zM202.88 -26.7363l0.352539 -0.367188z
M200.768 -24.5596l0.144531 -0.160156zM246.448 -50.4482h0.687531h-0.687531zM205.312 -29.168l0.272461 -0.255859zM207.52 -31.248l0.304688 -0.288084zM209.904 -33.4238zM212.24 -35.4082l0.208008 -0.175781zM214.592 -37.2959zM217.136 -39.248l0.0322266 -0.015625z
M219.328 -40.7842l0.431641 -0.288086zM221.952 -42.4805l0.0478516 -0.03125zM224.144 -43.792c0.117188 -0.0791016 0.317383 -0.186523 0.448242 -0.240234c-0.143555 0.0966797 -0.288086 0.160156 -0.448242 0.240234zM226.768 -45.2158
c0.0683594 -0.0410156 0.182617 -0.0986328 0.256836 -0.12793c-0.0683594 0.0400391 -0.183594 0.0976562 -0.256836 0.12793zM229.024 -46.2881l0.431641 -0.192383zM231.632 -47.4082l0.383774 -0.143555zM233.968 -48.2725l0.383774 -0.143555zM236.512 -49.04
l0.448242 -0.12793zM239.008 -49.6318l0.272461 -0.0644531zM241.472 -50.0801l0.496094 -0.0800781zM244.144 -50.3682h0.0644531h-0.0644531zM261.872 -47.0723l-0.927734 -0.416016zM260.288 -47.7598l-0.944336 -0.368164zM258.72 -48.3516l-1.00781 -0.336914z
M257.168 -48.8799l-1.20021 -0.335938c0.327164 0.108398 0.864273 0.258789 1.20021 0.335938zM255.6 -49.3125c-0.429688 -0.113281 -1.13182 -0.27832 -1.56737 -0.367188c0.527344 0.0957031 1.04002 0.239258 1.56737 0.367188zM253.648 -49.7598l-1.16795 -0.224609
c0.383789 0.0478516 0.783188 0.144531 1.16795 0.224609zM251.888 -50.0801l-0.959991 -0.12793zM250.272 -50.2725l-0.8965 -0.0957031zM248.688 -50.4004zM268.8 -43.1201c0.4375 0.301758 1.13281 0.810547 1.55176 1.13574
c-0.495117 -0.399414 -1.04004 -0.767578 -1.55176 -1.13574zM262.528 -46.7676c0.260742 0.117188 0.676758 0.325195 0.927734 0.463867zM264.096 -45.9678l0.928711 0.511719zM265.68 -45.1045l0.944336 0.592773
c-0.320312 -0.192383 -0.65625 -0.384766 -0.944336 -0.592773zM267.232 -44.1445c0.367188 0.224609 0.703125 0.464844 1.05566 0.704102zM393.712 173.792h0.0166016c1.31152 -0.240234 2.44727 -1.04004 3.13574 -2.19238
c0.6875 -1.15137 0.847656 -2.52734 0.463867 -3.80762c-16.6562 -54.4316 -38.1758 -80.8965 -65.7598 -80.8965c-5.26465 0 -10.7363 1.00879 -16.2881 3.00879c-15.9199 5.71191 -24.7363 14.8955 -27.6807 28.9277c-2.65527 12.5918 -0.639648 28.416 1.91992 48.4639
c0.848633 6.71973 1.72852 13.6484 2.56055 21.2324c0.108398 1.1377 0.947266 2.60742 1.87207 3.2793c0.69043 0.504883 1.94629 0.914062 2.80176 0.914062c0.244141 0 0.637695 -0.0361328 0.87793 -0.0820312zM318.752 93.6963l0.543945 -0.160156zM320.624 93.1523
l0.65625 -0.176758zM322.464 92.6875zM324.272 92.3037c0.201172 -0.0419922 0.53125 -0.0986328 0.735352 -0.12793zM326.064 92l0.751953 -0.0957031c-0.256836 0.03125 -0.512695 0.0478516 -0.751953 0.0957031zM327.84 91.792l0.751953 -0.0644531zM329.568 91.6797
c0.210938 -0.015625 0.555664 -0.0292969 0.767578 -0.03125zM331.28 91.6162h0.895508l-0.607422 -0.0166016h-0.272461zM332.8 91.6162l1.02441 0.0478516c-0.282227 -0.0263672 -0.741211 -0.0478516 -1.02441 -0.0478516zM334.336 91.7119l1.48828 0.144531
c-0.496094 -0.0644531 -0.992188 -0.128906 -1.48828 -0.144531zM336.145 91.8877c0.399414 0.0478516 0.799805 0.0966797 1.18359 0.176758zM337.856 92.1602l0.927734 0.175781zM339.392 92.4482l0.880859 0.208008zM340.848 92.8164
c0.235352 0.078125 0.62207 0.185547 0.864258 0.239258zM342.288 93.2324l0.879883 0.287109zM343.68 93.7119l1.07227 0.416016zM345.072 94.2402l1.35938 0.591797c-0.447266 -0.208008 -0.895508 -0.416016 -1.35938 -0.591797zM346.752 94.9922l1.02441 0.496094
c-0.279297 -0.145508 -0.738281 -0.367188 -1.02441 -0.496094zM348.24 95.7119c0.239258 0.117188 0.619141 0.325195 0.847656 0.463867zM349.6 96.4482l0.832031 0.479492c-0.271484 -0.175781 -0.55957 -0.319336 -0.832031 -0.479492zM350.928 97.2324
c0.272461 0.175781 0.560547 0.335938 0.832031 0.527344c-0.22168 -0.158203 -0.59375 -0.394531 -0.832031 -0.527344zM352.224 98.0645l0.896484 0.623047zM353.472 98.9277zM356.272 101.088l0.911133 0.78418zM357.568 102.208l0.832031 0.736328zM358.8 103.328
l0.78418 0.751953zM359.968 104.448l0.799805 0.81543zM362.256 106.832c0.768555 0.832031 1.52051 1.71191 2.24023 2.5918c-0.736328 -0.879883 -1.48828 -1.72754 -2.24023 -2.5918zM361.136 105.632l0.928711 0.992188
c-0.259766 -0.270508 -0.675781 -0.714844 -0.928711 -0.992188zM392.224 167.2l0.608398 1.96777zM364.8 109.76l0.799805 1.00781c-0.271484 -0.335938 -0.543945 -0.655273 -0.799805 -1.00781zM365.92 111.2l0.751953 0.943359
c-0.240234 -0.319336 -0.479492 -0.639648 -0.751953 -0.943359zM367.024 112.608l0.735352 0.975594zM368.08 114.032l0.767578 1.10352zM369.104 115.504l0.976562 1.44044zM370.112 116.976c0.335938 0.512695 0.704102 1.05664 1.02344 1.58398
c-0.279297 -0.438477 -0.738281 -1.14844 -1.02344 -1.58398zM371.248 118.736c0.250977 0.371094 0.637695 0.988274 0.864258 1.37597c-0.272461 -0.463867 -0.576172 -0.912102 -0.864258 -1.37597zM372.384 120.56l0.704102 1.16797
c-0.189453 -0.325195 -0.504883 -0.847656 -0.704102 -1.16797zM373.392 122.224l0.65625 1.12011zM374.352 123.888l0.65625 1.16798zM375.28 125.568l0.704102 1.2959zM376.192 127.232c0.511719 0.955078 1.32227 2.51758 1.80762 3.4873
c-0.591797 -1.18359 -1.2002 -2.33594 -1.80762 -3.4873zM378.192 131.104l0.671875 1.36035zM379.12 133.04l0.591797 1.23145zM380 134.88l0.543945 1.21582zM380.848 136.72l0.560547 1.24805zM381.68 138.544c0.1875 0.40625 0.473633 1.07324 0.640625 1.48828z
M382.479 140.4l0.800781 1.90332zM383.344 142.464l0.704102 1.69629zM384.288 144.768l0.511719 1.2959zM385.088 146.768l0.463867 1.2002zM385.855 148.704l0.464844 1.21582c-0.140625 -0.331055 -0.348633 -0.875977 -0.464844 -1.21582zM386.576 150.64
l0.479492 1.2959zM387.296 152.592l0.55957 1.56836zM388 154.528l0.6875 1.95117zM388.88 157.04l0.496094 1.4082zM389.632 159.184l0.416016 1.24805zM390.304 161.2zM390.976 163.2c0.12793 0.416016 0.240234 0.81543 0.384766 1.21582
c-0.144531 -0.400391 -0.256836 -0.799805 -0.384766 -1.21582zM391.6 165.2l0.416016 1.31152zM251.984 88l-0.0322113 -0.0322266c0.147461 -0.417969 0.267578 -1.11719 0.267578 -1.56055c0 -1.57812 -1.1377 -3.44434 -2.54004 -4.16699l-92.2881 -47.584
c-0.560547 -0.291992 -1.5293 -0.52832 -2.16113 -0.52832c-1.48438 0 -3.29688 1.03906 -4.04688 2.32031c-3.8877 6.62402 -7.50391 12.96 -10.7031 18.5762c-3.39258 5.9834 -6.35254 11.1514 -8.84863 15.2959c-17.8242 29.4238 -41.6963 74.3994 -43.1514 125.056
c-0.976562 33.6963 12.7031 54.9277 24.3359 66.7998c12.6396 12.9121 25.5039 17.7764 26.0479 17.9678l0.0634766 0.0166016c10.2725 3.64746 19.8242 5.50391 28.3838 5.50391c12.6729 0 23.6641 -4.01562 32.6562 -11.9844
c7.77637 -6.89551 14.0645 -16.5762 19.168 -29.584c9.10449 -23.1836 12.832 -53.2793 16.1123 -79.8232c2.19238 -17.7129 4.25583 -34.4482 7.61618 -46.9443c2.19824 -8.19336 6.28418 -21.333 9.12012 -29.3281zM235.424 129.136l-0.448227 2.52832zM238.304 116.08
c-0.160156 0.618164 -0.417969 1.62109 -0.576172 2.24023c0.176758 -0.751953 0.384766 -1.5205 0.576172 -2.24023zM237.632 118.624l-0.528336 2.20802c0.176758 -0.751953 0.336929 -1.48829 0.528336 -2.20802zM237.024 121.232
c-0.143555 0.616211 -0.366211 1.62012 -0.496094 2.23926zM236.448 123.888l-0.480484 2.36816zM235.936 126.528zM234.912 132.096l-0.416016 2.48047zM234.416 135.088l-0.383774 2.51172zM233.936 138.112l-0.383789 2.63965zM233.52 141.04l-0.367188 2.6084z
M233.088 144.016l-0.368149 2.65625zM232.624 147.328l-0.335953 2.55957zM232.192 150.672l-0.335922 2.54395c0.0908203 -0.702148 0.241196 -1.8418 0.335922 -2.54395zM231.76 154.048l-0.2715 2.09668zM231.312 157.584l-0.191422 1.56836zM228.448 180.304v0.0322266
v-0.0322266zM227.984 183.744zM226.512 193.984l-0.015625 0.143555zM225.968 197.393l-0.0322113 0.191406c-0.0273438 0.388672 -0.0205231 0.704102 0.0165863 0.704102c0.441406 0 0.799805 -0.358398 0.799805 -0.799805
c0 -0.374023 -0.351562 -0.416992 -0.78418 -0.0957031zM225.392 200.864l-0.0156097 0.0800781zM224.192 207.6l-0.0166016 0.0966797zM223.552 210.864l-0.0634766 0.271484zM222.864 214.224l-0.0644531 0.240234zM222.112 217.6l-0.0166016 0.0322266zM220.592 223.937
l-0.0634766 0.223633c0.0107422 -0.0634766 0.0400391 -0.164062 0.0634766 -0.223633zM219.76 227.072l-0.0800781 0.320328zM218.864 230.256l-0.0800781 0.240219zM216.944 236.336l-0.0322266 0.112289c-0.0146484 0.136719 -0.0078125 0.248047 0.015625 0.248047
c0.167969 0 0.304688 -0.136703 0.304688 -0.303696c0 -0.126953 -0.129883 -0.152344 -0.288086 -0.0566406zM215.952 239.168l-0.112305 0.288086c0.0234375 -0.0830078 0.0732422 -0.211914 0.112305 -0.288086zM214.864 242.08
c-0.0273438 0.0917969 -0.0849609 0.235336 -0.12793 0.320297zM213.68 244.96l-0.0800781 0.192352c0.0283203 -0.0507812 0.0634766 -0.136688 0.0800781 -0.192352zM211.28 250.272l-0.0966797 0.191391zM209.984 252.816l-0.176758 0.319336zM208.592 255.344z
M207.088 257.824l-0.0800781 0.12793zM205.584 260.112l-0.0322266 0.0634766zM204.08 262.208l-0.175781 0.240234zM202.416 264.32c-0.0654297 0.0771484 -0.165039 0.206055 -0.223633 0.288086c0.0791016 -0.0966797 0.15918 -0.176758 0.223633 -0.288086z
M200.656 266.368l-0.192383 0.223633zM198.768 268.336l-0.0634766 0.0644531zM196.976 270.016l-0.143555 0.128906c0.0429688 -0.0322266 0.107422 -0.0898438 0.143555 -0.128906zM195.072 271.632l-0.272461 0.224609zM192.976 273.184l-0.303711 0.224609z
M190.8 274.64l-0.223633 0.144531zM186.352 277.024l-0.271484 0.12793zM183.968 278.032l-0.368164 0.143555zM181.424 278.912l-0.368164 0.112305zM178.736 279.648l-0.224609 0.0478516zM176.08 280.208l-0.144531 0.0322266zM173.424 280.608l-0.383789 0.0478516z
M170.512 280.864l-0.463867 0.0322266zM167.424 280.96h-0.431641l0.271484 0.0166016l0.144531 -0.0166016h0.015625zM164.288 280.88zM161.472 280.672zM158.256 280.288zM154.8 279.696l-0.335938 -0.0644531c0.0917969 0.0234375 0.242188 0.0517578 0.335938 0.0644531
zM151.568 279.024l-0.352539 -0.0800781zM148.128 278.145c-0.168945 -0.0449219 -0.441406 -0.123047 -0.608398 -0.176758zM144.384 277.056zM422.432 374.384v0.0322266c5.69629 -20.7842 7.72852 -42.8164 6.19238 -67.3604
c-1.23242 -19.5674 -4.76855 -40.7832 -10.8643 -64.8799c-1.2002 -4.6875 -2.49609 -10.4795 -4 -17.168c-1.69629 -7.59961 -3.63184 -16.208 -5.87207 -25.3115c-0.488281 -1.97266 -2.53418 -3.57324 -4.56543 -3.57324
c-0.248047 0 -0.646484 0.0380859 -0.890625 0.0849609l-101.248 19.8721c-2.10547 0.399414 -3.81348 2.46289 -3.81348 4.60547c0 0.0673828 0.00195312 0.175781 0.00585938 0.242188c0.576172 11.4883 0.671875 22.4961 0.272461 33.6328
c-0.448242 12.9277 -3.36035 29.5352 -6.46484 47.1191c-7.75977 44.0801 -16.5439 94.0488 5.95215 120.849c10.1758 12.1279 25.9844 18.2881 46.9922 18.2881c1.44922 -0.00292969 3.80078 -0.0605469 5.24805 -0.12793h0.0634766
c0.592773 -0.0322266 14.3203 -0.912109 30.1768 -9.55273c14.624 -7.93555 33.8877 -24.2559 42.8154 -56.752zM346.784 436.112h-0.768555h0.768555zM344.416 436.144h-0.480469h0.480469zM303.68 422.64l-0.288086 -0.271484zM340.048 436.064l-0.351562 -0.0166016z
M335.952 435.808c-0.0761719 -0.000976562 -0.198242 -0.015625 -0.272461 -0.03125c0.0761719 0.000976562 0.198242 0.015625 0.272461 0.03125zM332.096 435.376l-0.223633 -0.0322266zM328.416 434.752c0.334961 0.450195 0.294922 0.816406 -0.0878906 0.816406
c-0.458984 0 -0.832031 -0.373047 -0.832031 -0.832031c0 -0.0419922 0.333008 -0.0488281 0.744141 -0.0166016zM324.912 434l-0.0957031 -0.015625zM321.632 433.072l-0.0634766 -0.0166016zM318.592 432l-0.111328 -0.0322266
c-0.137695 -0.0146484 -0.248047 -0.00683594 -0.248047 0.0166016c0 0.166992 0.135742 0.303711 0.303711 0.303711c0.125977 0 0.151367 -0.128906 0.0556641 -0.288086zM315.712 430.8l-0.175781 -0.0634766zM312.976 429.424
c-0.0644531 -0.0253906 -0.164062 -0.0751953 -0.223633 -0.111328zM310.416 427.936l-0.240234 -0.15918zM308.032 426.304l-0.272461 -0.191406zM305.776 424.544l-0.272461 -0.223633zM301.728 420.608c-0.0820312 -0.0859375 -0.210938 -0.229492 -0.287109 -0.320312z
M299.92 418.448l-0.271484 -0.352539zM298.256 416.192l-0.271484 -0.400391zM296.736 413.824l-0.272461 -0.432617zM295.344 411.328c-0.0742188 -0.128906 -0.181641 -0.34375 -0.240234 -0.480469zM294.08 408.736l-0.223633 -0.512695zM292.944 406.032
l-0.208008 -0.543945zM291.92 403.248l-0.191406 -0.591797zM291.04 400.368c-0.0527344 -0.166992 -0.131836 -0.439453 -0.175781 -0.608398c0.0478516 0.208008 0.0957031 0.416016 0.175781 0.608398zM290.24 397.392l-0.144531 -0.655273zM289.584 394.352
l-0.143555 -0.671875zM289.024 391.216l-0.112305 -0.704102zM288.544 388l-0.0957031 -0.719727zM288.176 384.72l-0.0800781 -0.735352zM287.904 381.392l-0.0478516 -0.767578zM287.712 377.968c-0.015625 -0.211914 -0.0292969 -0.555664 -0.0322266 -0.767578z
M287.6 374.512l-0.015625 -0.799805zM287.568 370.992zM291.168 330.816l0.175781 -1.18457zM287.616 367.536l0.0322266 -0.896484zM287.728 364.032l0.0488281 -0.992188zM287.904 360.464l0.0634766 -1.05566zM288.144 356.864l0.0966797 -1.13672
c-0.0400391 0.3125 -0.0830078 0.822266 -0.0966797 1.13672zM288.432 353.232l0.112305 -1.18457zM288.784 349.536l0.12793 -1.18457zM289.168 345.824l0.143555 -1.23242zM289.616 342.096l0.143555 -1.21582zM290.096 338.336l0.160156 -1.18359zM290.608 334.592
c0.0478516 -0.383789 0.0957031 -0.78418 0.175781 -1.18359c-0.0566406 0.325195 -0.134766 0.855469 -0.175781 1.18359zM294.192 312.208c1.34375 -7.75977 2.7041 -15.376 3.95117 -22.6719c-1.24707 7.31152 -2.60742 14.9121 -3.95117 22.6719zM291.728 327.056
l0.192383 -1.26367zM292.32 323.312l0.223633 -1.35938zM292.928 319.568l0.240234 -1.44043zM293.568 315.872l0.367188 -2.14453zM298.736 285.904l0.511719 -3.2002c-0.143555 1.05566 -0.335938 2.1123 -0.511719 3.2002zM298.144 289.472l0.560547 -3.35938z
M301.168 269.312zM299.296 282.432l0.480469 -3.10352zM299.824 279.056l0.448242 -3.05566zM300.32 275.712l0.416016 -2.99219zM300.784 272.48l0.368164 -2.92871c-0.112305 0.959961 -0.224609 1.93652 -0.368164 2.92871zM302.416 254.752zM302.271 257.536
l-0.191406 2.75195zM302.096 260.416l-0.239258 2.7998zM301.824 263.376z" />
    <glyph glyph-name="support" unicode="s" 
d="M252.688 437.856c136.943 1.83984 249.455 -107.681 251.296 -244.656c1.80762 -136.944 -107.712 -249.472 -244.672 -251.28c-136.961 -1.83984 -249.456 107.68 -251.297 244.656c-1.82324 136.96 107.712 249.456 244.673 251.28zM253.104 405.52
c-28.2744 -0.352539 -71.5694 -11.2549 -96.6397 -24.3359l33.3604 -55.5996c19.9834 9.77637 42.4482 15.2637 66.1758 15.2637s46.1924 -5.50391 66.1602 -15.2637l33.376 55.6318c-25.7422 13.4287 -70.1982 24.3281 -99.2314 24.3281
c-0.883789 0 -2.31737 -0.0107422 -3.20116 -0.0244141zM120.304 123.712c-9.75977 19.9844 -15.2637 42.4482 -15.2637 66.1758c0 23.7285 5.50391 46.1924 15.2803 66.1602l-55.6318 33.376c-13.4287 -25.7539 -24.3271 -70.2285 -24.3271 -99.2734
c0 -0.867188 0.00976562 -2.27539 0.0224609 -3.14258c0.351562 -28.2793 11.2549 -71.5811 24.3359 -96.6562zM258.896 -25.7441c28.2725 0.363281 71.5664 11.2656 96.6396 24.3359l-33.3604 55.6006c-17.2314 -8.41699 -46.7822 -15.248 -65.96 -15.248h-0.200195
h-0.149414c-19.1953 0 -48.7744 6.83105 -66.0264 15.248l-33.376 -55.6328c25.7383 -13.4287 70.1894 -24.3271 99.2207 -24.3271c0.886734 0 2.32521 0.0107422 3.21193 0.0234375zM256 71.2803c65.4717 0 118.608 53.1357 118.608 118.607
s-53.1367 118.608 -118.608 118.608c-65.5039 0 -118.608 -53.0879 -118.608 -118.608c0 -65.5195 53.1045 -118.607 118.608 -118.607zM391.68 123.712l55.6484 -33.376c13.4287 25.7422 24.3281 70.1973 24.3281 99.2314c0 0.883789 -0.0107727 2.31738 -0.0244446 3.2002
c-0.353516 28.2754 -11.2558 71.5703 -24.3359 96.6406l-55.6162 -33.3604c8.42578 -17.2402 15.2646 -46.8066 15.2646 -65.9961v-0.164062v-0.175781c0 -19.1904 -6.83887 -48.7578 -15.2646 -66z" />
    <glyph glyph-name="systems" unicode="S" 
d="M411.008 65.8877v-31.0078h31.0078v-31.0078h-186.016v31.0078h30.9922v31.0078h-92.9922v279.009h310v-279.009h-92.9922zM472.992 313.888h-248v-216.991h248v216.991zM8 375.888h155.008v-372h-155.008v372zM39.0078 96.8965h31.0078v31.0078h-31.0078v-31.0078z
M39.0078 158.88h31.0078v31.0078h-31.0078v-31.0078zM39.0078 251.888h92.9922v31.0088h-92.9922v-31.0088zM39.0078 313.888h92.9922v31.0088h-92.9922v-31.0088z" />
    <glyph glyph-name="terms" unicode="'" 
d="M416 -18.0957v233.104l32 32v-265.104c-0.0703125 -26.4258 -21.5742 -47.9375 -48 -48.0166h-352c-26.4004 0 -48 21.6006 -48 48.0166v415.983c0 26.4004 21.5996 48 48 48h321.376l-96 -96h-241.376v-367.983c0 -8.68848 7.32812 -16 16 -16h352
c8.67188 0 16 7.31152 16 16zM120.72 141.824l87.2324 -87.2959l-7.79199 -7.83984l-0.608398 0.0957031c-3.32812 -2.49609 -7.85547 -4.75195 -11.4873 -5.21582l-84.0967 -10.6885c-4.36816 -0.55957 -7.4873 2.57617 -6.92773 6.94434l10.6719 84.0635
c0.543945 4.28809 3.45605 10.1602 6.48046 13.3125v0.0634766l0.127937 0.12793l0.0634766 0.0966797l0.688477 0.671875l0.03125 0.0322266zM503.536 391.216c4.67773 -4.70215 8.47461 -13.9023 8.47461 -20.5361c0 -6.62598 -3.79004 -15.8184 -8.45898 -20.5195
l-41.1514 -41.1201l-87.2168 87.2158l41.0889 41.0879c4.71582 4.71973 13.959 8.55078 20.6318 8.55078c6.64258 0 15.8574 -3.80176 20.5674 -8.48633zM352.176 373.2l87.2646 -87.2646l-217.072 -217.008l-87.248 87.2646z" />
    <glyph glyph-name="test" unicode="0" 
d="M500.8 169.088c-8 -11.2002 -12.7998 -17.5996 -11.2002 -24c-1.59961 -4.7998 -3.05176e-05 -14.3994 3.20016 -25.5996c3.2002 -11.2002 3.20023 -20.7998 1.60062 -25.6006c-1.60059 -4.7998 -8 -11.2002 -19.2002 -17.5996
c-11.2002 -6.40039 -17.6006 -12.7998 -20.7998 -16c-3.2002 -3.2002 -4.80081 -11.2002 -6.40042 -24c-1.59961 -11.2002 -3.2002 -20.7998 -8 -24s-12.7998 -6.40039 -25.5996 -8c-12.8008 -1.60059 -22.4004 -3.2002 -25.6006 -6.40039
c-4.7998 -3.19922 -9.59961 -9.59961 -16 -20.7998c-6.39941 -11.2002 -12.7998 -17.5996 -17.5996 -19.2002c-3.2002 -1.59961 -6.40039 -1.59961 -9.60059 -1.59961c-4.7998 0 -11.1992 1.59961 -19.1992 3.2002c-9.60059 1.59961 -16 3.2002 -19.2002 3.2002h-4.7998
c-4.80078 -1.60059 -12.8008 -4.80078 -22.4004 -12.8008s-19.2002 -11.1992 -24 -11.1992s-14.4004 3.19922 -24 11.1992c-9.59961 6.40039 -17.5996 11.2002 -20.7998 12.8008h-6.40039c-4.7998 0 -11.2002 -1.60059 -19.2002 -3.2002
c-9.59961 -1.60059 -16 -3.2002 -19.1992 -3.2002c-3.2002 0 -4.80078 0 -8 1.59961c-4.80078 1.60059 -11.2002 8 -17.6006 19.2002c-6.39941 11.2002 -12.7998 17.5996 -16 20.7998c-4.7998 3.2002 -12.7998 4.80078 -25.5996 9.60059
c-11.2002 1.59961 -20.7998 4.7998 -24 8c-4.7998 3.2002 -8 11.2002 -9.60059 24c-1.59961 11.2002 -3.19922 20.7998 -6.39942 24c-3.2002 4.7998 -9.60058 9.59961 -20.7998 16c-11.2002 6.39941 -17.6006 12.7998 -19.2002 17.5996
c-1.60059 4.7998 -1.60059 14.4004 1.59961 25.6006c3.2002 11.1992 3.2002 20.7998 3.2002 25.5996c-1.59961 3.2002 -4.7998 11.2002 -12.7998 20.7998c-8 9.60059 -11.2002 17.6006 -11.2002 24c0 4.7998 3.2002 12.7998 11.2002 22.4004
c8 11.2002 12.7998 17.5996 12.7998 22.3994c1.59961 4.80078 0 12.8008 -3.2002 25.6006c-3.2002 11.2002 -3.2002 20.7998 -1.59961 25.5996c1.59961 4.7998 8 11.2002 19.2002 17.6006c11.1992 6.39941 17.5996 12.7998 20.7998 16
c3.2002 3.19922 4.79981 11.1992 6.39942 24c3.2002 12.7998 4.80078 20.7998 9.60059 25.5996c3.2002 3.2002 11.2002 6.40039 24 8s20.7998 3.2002 25.5996 6.40039c3.2002 3.19922 8 9.59961 16 20.7998c6.40039 9.59961 11.2002 16 17.6006 19.2002
c3.19922 1.59961 4.7998 1.59961 8 1.59961c4.7998 0 11.1992 -1.59961 19.1992 -3.2002c8 -1.59961 14.4004 -3.2002 19.2002 -3.2002h4.7998c4.80078 1.60059 12.8008 4.80078 22.4004 12.8008s17.5996 11.1992 24 11.1992s14.4004 -3.19922 22.4004 -12.7998
c11.1992 -8 17.5996 -12.7998 22.3994 -12.7998h4.7998c4.80078 0 11.2002 1.59961 19.2002 3.2002c9.60059 1.59961 16 3.2002 19.2002 3.2002s6.40039 -1.60059 9.59961 -1.60059c4.80078 -1.59961 11.2002 -8 17.6006 -19.2002c6.39941 -9.59961 12.7998 -16 16 -19.1992
c3.2002 -3.2002 12.7998 -4.80078 25.5996 -3.2002c12.7998 -1.60059 22.4004 -4.7998 25.6006 -8c3.19922 -4.7998 6.39941 -12.7998 8 -25.6006c1.59961 -12.7998 3.19919 -22.3994 6.39938 -25.5996c3.2002 -4.7998 9.60062 -9.59961 20.7998 -16
c9.60059 -6.40039 17.6006 -12.7998 19.2002 -17.5996c1.60059 -4.80078 1.60059 -12.8008 -1.59961 -25.6006s-4.79977 -20.7998 -3.20016 -25.5996s4.7998 -12.7998 12.7998 -22.4004c8 -11.2002 11.2002 -17.5996 11.2002 -24c0 -6.39941 -3.2002 -14.3994 -11.2002 -24z
M150.4 221.888v20.8008h-92.8008v-20.8008h33.6006v-91.1992h25.5996v91.1992h33.6006zM248 129.088h1.59961v22.4004h-60.7998v27.2002h54.4004v19.1992h-54.4004v24h59.2002v19.2002h-84.7998v-112h84.7998zM307.2 127.488c30.3994 0 46.3994 14.3994 46.3994 36.7998
c0 24 -25.5996 30.4004 -33.5996 32c-28.7998 8 -33.5996 9.59961 -33.5996 17.5996c0 9.60059 9.59961 12.8008 17.5996 12.8008c12.7998 0 22.4004 -4.8008 22.4004 -17.6006h24c0 27.2002 -20.8008 36.7998 -44.8008 36.7998
c-19.1992 0 -41.5996 -11.1992 -41.5996 -33.5996c0 -20.7998 17.5996 -27.2002 33.5996 -32s33.6006 -6.40039 33.6006 -19.2002c0 -11.2002 -14.4004 -14.3994 -22.4004 -14.3994c-14.3994 0 -25.5996 6.39941 -25.5996 20.7998h-24c0 -27.2002 22.3994 -40 48 -40z
M452.8 221.888h1.60065v20.8008h-92.8008v-20.8008h33.6006v-91.1992h24v91.1992h33.5996z" />
    <glyph glyph-name="text-mining" unicode="X" 
d="M489.088 159.2c4.74023 -4.37305 8.58789 -13.1562 8.58789 -19.6055c0 -5.70117 -3.11624 -13.748 -6.95609 -17.9629l-12.5596 -13.6641c-4.36523 -4.73633 -13.1367 -8.58105 -19.5781 -8.58105c-5.7168 0 -13.7764 3.13477 -17.9902 6.99707l-191.983 176.16
c-12.2227 -15.1699 -30.0713 -41.1611 -39.8408 -58.0156l90.1289 -290.641h-79.7129l-25.2637 84.0801h-93.8076l-23.3281 -84.0801h-76.7842l100.128 327.584h72.4805c9.11816 16.377 25.998 41.5654 37.6797 56.2246l-3.37598 3.08789
c-4.75098 4.36719 -8.60742 13.1484 -8.60742 19.6016c0 5.70605 3.125 13.7549 6.97559 17.9658l12.5273 13.6807c9.52051 10.3516 27.1523 11.1357 37.5683 1.61621l3.39162 -3.12012c49.5527 46.6875 101.36 75.3594 136.769 75.3594
c12.8955 0 23.4883 -3.67969 31.376 -10.9434c0.650391 -0.591797 1.64648 -1.60938 2.22363 -2.27246c2.41602 -2.67188 3.34473 -6.54395 2.25586 -9.96777c-1.08789 -3.42383 -3.80762 -6.14453 -7.2793 -6.92773c-35.4561 -8 -82.4326 -37.8086 -127.024 -80.416z
M110.816 73.376h72.416l-20.416 69.5039c-5.84082 19.4238 -11.6641 43.7441 -16.5283 63.1846h-0.976562c-4.84766 -19.4404 -9.72754 -44.2246 -15.0557 -63.1846z" />
    <glyph glyph-name="toolkit" unicode=":" 
d="M105.168 180.24c-2 -0.671875 -4 -1.13672 -5.72754 -1.12012l-36.0801 0.015625c-4.29199 0.242188 -9.51758 3.46094 -11.6641 7.18457l-27.584 55.1836c-0.56543 1.27344 -1.02441 3.43752 -1.02441 4.83009c0 2.55176 1.39746 6.15135 3.12012 8.03416l6 6.00002
c1.30371 1.29199 3.85254 2.34082 5.68848 2.34082c1.83496 0 4.38379 -1.04883 5.6875 -2.34082l32.1123 -32.0957c1.30176 -1.29199 3.8457 -2.34085 5.67969 -2.34085s4.37793 1.04886 5.67969 2.34085l14.7207 14.7197c1.29883 1.30078 2.35449 3.84863 2.35449 5.6875
s-1.05566 4.38768 -2.35449 5.68846l-32.1123 32.0957c-1.2998 1.30078 -2.35449 3.84961 -2.35449 5.68848s1.05469 4.38672 2.35449 5.6875l6.03223 6c1.89258 1.71582 5.50293 3.10742 8.05762 3.10742c1.38965 0 3.5498 -0.453125 4.82227 -1.01172l55.1514 -27.6152
c3.75195 -2.11914 6.98438 -7.33008 7.2168 -11.6328v-36.0791c0 -1.71289 -0.463867 -3.71289 -1.13672 -5.69629l70.4004 -70.416h-89.3115zM488.704 204.736c3.83984 -3.88867 3.83981 -10.1768 0.032196 -14.0322l-32.7686 -32.7197
c-1.60059 -1.59961 -4.7363 -2.89844 -6.99997 -2.89844c-2.2627 0 -5.39844 1.29883 -7 2.89844l-14.0479 14.0635c-1.58887 1.59473 -2.87891 4.7168 -2.87891 6.96777c0 2.2666 1.30371 5.40234 2.91113 7l2.33594 2.35254l-4.68848 4.6875
c-2.65918 2.45703 -7.56934 5.48145 -10.96 6.75195l-15.5039 5.16797c-3.38379 1.27539 -8.29395 4.29297 -10.96 6.73633l-28.0635 28.0957c-2.38281 2.66113 -4.47559 7.71486 -4.67188 11.2803v12.0801c-13.6484 40.8799 -51.3447 31.6162 -51.3447 31.6162
c-3.59961 0.543945 -4.75195 5.77539 -4.75195 5.77539c18.6719 18.7207 87.0879 1.61621 87.0879 1.61621c3.50488 -0.895508 8.5127 -3.71191 11.0889 -6.25586l37.4072 -37.4404c2.56055 -2.54395 5.66406 -7.4873 6.76855 -10.9111l5.16797 -15.5361
c1.15137 -3.42383 4.20801 -8.35254 6.71973 -10.9121l4.70413 -4.68848l2.35153 2.35254c1.61328 1.58301 4.75681 2.86719 7.01657 2.86719s5.40338 -1.28418 7.01569 -2.86719zM462.656 220.112c-0.688477 -0.400391 -1.42383 -0.736328 -2.01562 -1.32812
l-2.35251 -2.35254l-4.70413 4.68848c-2.51172 2.55957 -5.56738 7.48828 -6.71973 10.9121l-5.16797 15.5361c-0.591797 1.82324 -1.75977 4.06349 -3.08789 6.1758c-4.97656 2.22363 -10.9287 3.66405 -18.1445 3.66405h-65.0234v-6.33592
c0.196289 -3.56641 2.28906 -8.62012 4.67188 -11.2803l14.5762 -14.6084h45.7754c3.91992 0 8.57617 -0.832016 9.61621 -7.37596c0.896484 -5.69531 14.3838 -33.6953 26.9121 -58.8154l23.3916 23.3594c-8.19141 16.208 -15.376 31.0566 -17.7275 37.7607z
M343.056 154.496h-57.6318c6.05859 4.20508 15.2412 11.8174 20.4961 16.9922l46.6885 46.2393l26.9121 -26.9111c-0.224609 -0.272461 -20.0166 -19.8564 -36.4648 -36.3203zM98.7197 257.408h52.2402v-26.7998c0 -1.63281 -0.448242 -3.52051 -1.05566 -5.4082h-58.3359
c-3.93652 0 -8.59277 -0.832031 -9.61621 -7.37598c-0.65625 -4.17578 -8.12793 -20.416 -17.0078 -38.7041h-1.60059c-4.29102 0.242188 -9.5166 3.45996 -11.6641 7.18359l-9.12012 18.2559c4.24023 8.95996 7.18457 15.792 7.56836 18.2881
c0 0 1.80762 11.2646 10.0322 20.9287l15.5195 -15.5049c1.29688 -1.31055 3.84473 -2.37401 5.68848 -2.37401s4.3916 1.06346 5.6875 2.37401l14.7207 14.7207c1.29199 1.30371 2.34082 3.85156 2.34082 5.6875s-1.04883 4.38475 -2.34082 5.68846l-3.05664 3.05568
v-0.015625zM331.264 251.104c0.0488281 -9.16797 3.88867 -18.8477 9.76074 -25.8877h-157.36l-8.55957 8.57617v23.6484h156.159v-6.33691zM491.936 159.808v-0.015625c10.6562 -20.5439 20.0645 -38.0957 20.0645 -38.0957v-164.816c0 -8.81543 -7.18359 -16 -16 -16h-480
c-8.7998 0 -16 7.18457 -16 16v164.816s15.3916 28.7197 29.1201 55.7275l0.944336 -1.9043c4.70312 -9.24805 13.7119 -16.2715 23.6475 -19.1357c-7.28027 -14.6074 -14 -27.7441 -17.5518 -34.6719h439.664c-1.85645 3.59961 -4.52835 8.84766 -7.72855 15.1523
c1.47754 0.994141 3.7002 2.82129 4.95996 4.08008zM356.64 39.3438h-0.03125v24.1602c0 2.22461 -1.79199 4.03223 -4.0166 4.03223h-32.2236c-2.22363 0 -4.0166 -1.80762 -4.0166 -4.03223v-24.1602c-0.0498047 -2.17578 -1.85547 -3.98145 -4.03125 -4.03125h-112.721
c-2.14355 0 -4.01562 1.8877 -4.01562 4.03125v24.1602c0 2.22461 -1.79199 4.03223 -4.01562 4.03223h-32.208c-2.22461 0 -4.0166 -1.80762 -4.0166 -4.03223v-24.1602c0.0263672 -24.4199 19.8682 -44.2617 44.2881 -44.2881h112.72
c24.4209 0.0263672 44.2617 19.8682 44.2881 44.2881z" />
    <glyph glyph-name="train" unicode="7" 
d="M479.376 -46.624h34.9922v-23.0244h-512.017v23.0244h34.7842l28.8965 29.376h-25.0879v18.3682h43.168l28.4316 28.8799c-18.1758 5.53613 -31.5684 22.2725 -31.5684 42.1602l7.36035 272.768c0.0117188 2.25098 0.370117 5.87109 0.799805 8.08008
c2.5127 35.7285 73.0078 80.416 168.769 80.416c95.6475 0 166.063 -44.5918 168.752 -80.2881c0.436523 -2.24414 0.794922 -5.9209 0.799805 -8.20801l7.4082 -272.768c0 -19.8877 -13.4082 -36.6406 -31.5684 -42.1602l28.6719 -28.8799h43.8086v-18.3682h-25.5684z
M110.448 263.888c0.0175781 -8.125 6.62597 -14.7266 14.7519 -14.7354h265.408c8.10742 0.0263672 14.709 6.62793 14.7354 14.7354v44.1924c0 8.1123 -6.63965 14.7363 -14.7354 14.7363h-265.408c-8.1123 0 -14.7519 -6.62402 -14.7519 -14.7363v-44.1924z
M292.16 160.016v-0.015625v0.0244141c0 18.6523 -15.1387 33.792 -33.792 33.792c-18.6396 0 -33.7793 -15.1289 -33.792 -33.7686v-0.015625c0 -18.6533 15.1387 -33.792 33.792 -33.792c18.6445 0 33.7832 15.1318 33.792 33.7754zM152.144 27.9043l-26.4795 -26.8008
h264.528l-26.5605 26.8008h-211.488zM78.4805 -46.6396h359.008l-29.0879 29.376h-300.912z" />
    <glyph glyph-name="training" unicode="T" 
d="M96 157.888c-17.584 0 -32 14.4004 -32 32v192c0 17.6006 14.416 32 32 32h320c17.5996 0 32 -14.3994 32 -32v-192c0 -17.5996 -14.4004 -32 -32 -32h-320zM96 381.888v-192h320v192h-320zM507.84 6.20801c2.28809 -5.44043 4.16016 -14.6562 4.16016 -20.5117v-9.18457
c0 -5.83984 -5.04004 -10.624 -11.2002 -10.624h-489.6c-6.14453 0 -11.2002 4.78418 -11.2002 10.624v9.18457c0 5.85547 1.8877 15.0713 4.16016 20.5117l55.6797 132.192c2.28809 5.43945 9.2002 9.90332 15.3604 9.90332h361.6
c6.16016 0 13.0723 -4.46387 15.3604 -9.90332zM192 -3.71191h128l-8 60.8154h-112z" />
    <glyph glyph-name="tutorial" unicode="t" 
d="M176 349.888c0 44.1924 35.8076 80 80 80s80 -35.8076 80 -80c0 -44.1914 -35.8076 -80 -80 -80s-80 35.8086 -80 80zM504.992 65.8721c3.87402 -4.83984 7.01859 -13.7998 7.01859 -19.999c0 -17.6641 -14.3359 -32 -32 -32
c-1.75098 0 -4.56546 0.279297 -6.28323 0.623047l-89.7275 17.9521v-98.5439h-256v98.5439l-89.7119 -17.9199c-1.71777 -0.344727 -4.53516 -0.624024 -6.28711 -0.624024c-17.6641 0 -32 14.3359 -32 32c0 6.19336 3.13965 15.1465 7.00684 19.9834l128 160
c6.32031 7.88867 15.6162 12 24.9922 12h192v-0.015625h0.0273438c8.48242 0 19.666 -5.37598 24.9648 -12zM352 104.144v69.7441l-96 -32l-96 32v-69.7441l25.7275 5.12012c1.59473 0.294922 4.20312 0.535156 5.82422 0.535156c17.6641 0 32 -14.3359 32 -32
c0 -14.2734 -11.3252 -28.29 -25.2793 -31.2871l-38.2725 -7.64746v-24.9766l96 -32l96 32v24.9766l-38.2725 7.66406c-14.4482 2.67383 -26.1758 16.7705 -26.1758 31.4648c0 17.6641 14.3359 32 32 32c1.87598 0 4.88672 -0.319336 6.7207 -0.712891z" />
    <glyph glyph-name="unreviewed-data" unicode="Q" 
d="M349.344 318.816v116.768c10.6885 -4.91211 20.5127 -11.1201 27.3438 -17.9678l71.4561 -71.4404c6.84863 -6.84766 13.04 -16.6719 17.9521 -27.3594h-116.752zM349.344 285.888h126.544c0.320312 -2.75195 0.528351 -5.43945 0.528351 -8v-304c0 -22 -18 -40 -40 -40
h-368c-22.0186 0.0615234 -39.9385 17.9814 -40 40v432c0 22 18 40 40 40h240c2.55957 0 5.24805 -0.208008 8 -0.543945v-159.456h32.9277z" />
    <glyph glyph-name="video" unicode="V" 
d="M483.264 360.336c13.3281 -52.1758 20.7363 -109.84 20.7363 -170.448c0 -60.6074 -7.40817 -118.271 -20.7363 -170.447c-69.584 -10 -146.432 -15.5527 -227.264 -15.5527s-157.68 5.55273 -227.264 15.5527c-13.3281 52.1758 -20.7363 109.84 -20.7363 170.447
c0 60.6084 7.4082 118.272 20.7363 170.448c69.584 10 146.432 15.5518 227.264 15.5518s157.68 -5.55176 227.264 -15.5518zM194 96.8965l154.992 92.9912l-154.992 92.9922v-185.983z" />
    <glyph glyph-name="walk" unicode="6" 
d="M403.68 212.832c0.749023 -0.578125 1.35547 -1.81445 1.35547 -2.76074c0 -0.556641 -0.241211 -1.3916 -0.539062 -1.86328l-9.8877 -15.3438c-0.598633 -0.895508 -1.95703 -1.62207 -3.0332 -1.62207c-0.457031 0 -1.16309 0.160156 -1.5752 0.357422
l-75.0879 37.2646c-1.55762 0.836914 -3.92285 2.43457 -5.28027 3.56738l-23.4717 20.6084c-1.34375 1.18359 -2.99219 0.816391 -3.71191 -0.816422l-23.5205 -52.7197c-0.267578 -0.710938 -0.484375 -1.9043 -0.484375 -2.66406
c0 -0.904297 0.302734 -2.30469 0.676758 -3.12793l44.96 -85.3916c0.816406 -1.56836 1.64746 -4.28809 1.87207 -6.04785l18.3838 -151.824c0.0136719 -0.110352 0.0244141 -0.290039 0.0244141 -0.400391c0 -1.56348 -1.25098 -3.04785 -2.79199 -3.31152
l-22.4326 -3.76075c-0.143555 -0.0205078 -0.378906 -0.0371017 -0.524414 -0.0371017c-1.48633 0 -3.05762 1.14941 -3.50781 2.56543l-36.5918 128.145c-0.536133 1.66309 -1.88379 4.10059 -3.00781 5.43945l-34.1123 38.3359
c-1.16797 1.34375 -2.7041 1.08789 -3.40723 -0.543945l-78.96 -181.072c-0.46582 -1.05176 -1.77637 -1.90625 -2.92773 -1.90625c-0.374023 0 -0.955078 0.123047 -1.29688 0.274414l-25.6797 11.3926c-1.18848 0.573242 -2.15332 2.10938 -2.15332 3.42969
c0 0.267578 0.0537109 0.695312 0.121094 0.954102l63.3604 219.584c0.108398 0.476562 0.196289 1.26074 0.196289 1.75c0 1.17773 -0.482422 2.95996 -1.07617 3.97754l-6.03223 9.07227c-0.666016 1.13867 -1.20703 3.13281 -1.20703 4.45215
c0 0.37207 0.0458984 0.97168 0.102539 1.33984l22.6084 104.016c0.368164 1.72852 -0.767578 3.13672 -2.54395 3.13672h-31.0078c-1.7373 -0.0419922 -3.31445 -1.47559 -3.52051 -3.2002l-8.97559 -89.5518c-0.200195 -1.73242 -1.77734 -3.16602 -3.52051 -3.2002
h-17.5518h-0.015625c-1.7666 0 -3.20021 1.43359 -3.20021 3.2002v108.72c0 1.75977 1.32814 3.75977 2.94435 4.47949l127.439 54.9766c0.688477 0.257812 1.84375 0.466797 2.5791 0.466797c0.923828 0 2.34863 -0.324219 3.18066 -0.722656l47.1045 -25.7119
c1.55176 -0.848633 3.31152 -2.87988 3.95215 -4.54395l26.4961 -70.6729c0.677734 -1.61133 2.32715 -3.81934 3.67969 -4.92773zM248.032 405.136c0 22.4951 18.2569 40.752 40.752 40.752s40.752 -18.2568 40.752 -40.752s-18.2568 -40.752 -40.752 -40.752
s-40.752 18.2568 -40.752 40.752z" />
  </font>
</defs>
</svg>
